<?xml version="1.0" encoding="UTF-8" standalone="no"?>
<!DOCTYPE svg PUBLIC "-//W3C//DTD SVG 1.1//EN"
 "http://www.w3.org/Graphics/SVG/1.1/DTD/svg11.dtd">
<!-- Generated by graphviz version 2.40.1 (20161225.0304)
 -->
<!-- Title: dependencies Pages: 1 -->
<svg width="504pt" height="284pt"
 viewBox="0.00 0.00 504.00 284.00" xmlns="http://www.w3.org/2000/svg" xmlns:xlink="http://www.w3.org/1999/xlink">
<g id="graph0" class="graph" transform="scale(1 1) rotate(0) translate(4 280)">
<title>dependencies</title>
<polygon fill="#ffffff" stroke="transparent" points="-4,4 -4,-280 500,-280 500,4 -4,4"/>
<text text-anchor="start" x="227.0091" y="-42.4" font-family="sans-serif" font-weight="bold" font-size="14.00" fill="#000000">Legend</text>
<polygon fill="#ffffb3" stroke="transparent" points="14,-10 14,-30 34,-30 34,-10 14,-10"/>
<text text-anchor="start" x="37.629" y="-15.4" font-family="sans-serif" font-size="14.00" fill="#000000"> &#160;Declarations</text>
<polygon fill="#8dd3c7" stroke="transparent" points="127,-10 127,-30 147,-30 147,-10 127,-10"/>
<text text-anchor="start" x="150.7251" y="-15.4" font-family="sans-serif" font-size="14.00" fill="#000000"> &#160;Module</text>
<polygon fill="#80b1d3" stroke="transparent" points="213,-10 213,-30 233,-30 233,-10 213,-10"/>
<text text-anchor="start" x="236.7812" y="-15.4" font-family="sans-serif" font-size="14.00" fill="#000000"> &#160;Bootstrap</text>
<polygon fill="#fdb462" stroke="transparent" points="310,-10 310,-30 330,-30 330,-10 310,-10"/>
<text text-anchor="start" x="333.6732" y="-15.4" font-family="sans-serif" font-size="14.00" fill="#000000"> &#160;Providers</text>
<polygon fill="#fb8072" stroke="transparent" points="406,-10 406,-30 426,-30 426,-10 406,-10"/>
<text text-anchor="start" x="429.7258" y="-15.4" font-family="sans-serif" font-size="14.00" fill="#000000"> &#160;Exports</text>
<g id="clust1" class="cluster">
<title>cluster_CoreModule</title>
<polygon fill="none" stroke="#000000" stroke-dasharray="1,5" points="105,-70 105,-268 391,-268 391,-70 105,-70"/>
</g>
<g id="clust3" class="cluster">
<title>cluster_CoreModule_imports</title>
<polygon fill="none" stroke="#000000" points="283,-78 283,-130 383,-130 383,-78 283,-78"/>
</g>
<g id="clust4" class="cluster">
<title>cluster_CoreModule_exports</title>
<polygon fill="none" stroke="#000000" points="210,-208 210,-260 314,-260 314,-208 210,-208"/>
</g>
<g id="clust6" class="cluster">
<title>cluster_CoreModule_providers</title>
<polygon fill="none" stroke="#000000" points="113,-78 113,-130 275,-130 275,-78 113,-78"/>
</g>
<!-- PostModule -->
<g id="node1" class="node">
<title>PostModule</title>
<polygon fill="#8dd3c7" stroke="#000000" points="374.6683,-122 371.6683,-126 350.6683,-126 347.6683,-122 291.3317,-122 291.3317,-86 374.6683,-86 374.6683,-122"/>
<text text-anchor="middle" x="333" y="-99.8" font-family="Times,serif" font-size="14.00" fill="#000000">PostModule</text>
</g>
<!-- CoreModule -->
<g id="node2" class="node">
<title>CoreModule</title>
<polygon fill="#8dd3c7" stroke="#000000" points="305.2619,-187 302.2619,-191 281.2619,-191 278.2619,-187 218.7381,-187 218.7381,-151 305.2619,-151 305.2619,-187"/>
<text text-anchor="middle" x="262" y="-164.8" font-family="Times,serif" font-size="14.00" fill="#000000">CoreModule</text>
</g>
<!-- PostModule&#45;&gt;CoreModule -->
<g id="edge1" class="edge">
<title>PostModule&#45;&gt;CoreModule</title>
<path fill="none" stroke="#000000" d="M298.2735,-122.1061C298.2735,-122.1061 298.2735,-140.991 298.2735,-140.991"/>
<polygon fill="#000000" stroke="#000000" points="294.7736,-140.9909 298.2735,-150.991 301.7736,-140.991 294.7736,-140.9909"/>
</g>
<!-- PostModule  -->
<g id="node3" class="node">
<title>PostModule </title>
<polygon fill="#fb8072" stroke="#000000" points="305.6678,-252 218.3322,-252 218.3322,-216 305.6678,-216 305.6678,-252"/>
<text text-anchor="middle" x="262" y="-229.8" font-family="Times,serif" font-size="14.00" fill="#000000">PostModule </text>
</g>
<!-- CoreModule&#45;&gt;PostModule  -->
<g id="edge2" class="edge">
<title>CoreModule&#45;&gt;PostModule </title>
<path fill="none" stroke="#000000" stroke-dasharray="5,2" d="M262,-187.1061C262,-187.1061 262,-205.991 262,-205.991"/>
<polygon fill="#000000" stroke="#000000" points="258.5001,-205.9909 262,-215.991 265.5001,-205.991 258.5001,-205.9909"/>
</g>
<!-- AuthInterceptor -->
<g id="node4" class="node">
<title>AuthInterceptor</title>
<ellipse fill="#fdb462" stroke="#000000" cx="194" cy="-104" rx="72.9121" ry="18"/>
<text text-anchor="middle" x="194" y="-99.8" font-family="Times,serif" font-size="14.00" fill="#000000">AuthInterceptor</text>
</g>
<!-- AuthInterceptor&#45;&gt;CoreModule -->
<g id="edge3" class="edge">
<title>AuthInterceptor&#45;&gt;CoreModule</title>
<path fill="none" stroke="#000000" d="M242.6625,-117.468C242.6625,-117.468 242.6625,-140.8642 242.6625,-140.8642"/>
<polygon fill="#000000" stroke="#000000" points="239.1626,-140.8641 242.6625,-150.8642 246.1626,-140.8642 239.1626,-140.8641"/>
</g>
</g>
</svg>
