<?xml version="1.0" encoding="UTF-8" standalone="no"?>
<!DOCTYPE svg PUBLIC "-//W3C//DTD SVG 1.1//EN"
 "http://www.w3.org/Graphics/SVG/1.1/DTD/svg11.dtd">
<!-- Generated by graphviz version 2.40.1 (20161225.0304)
 -->
<!-- Title: dependencies Pages: 1 -->
<svg width="658pt" height="284pt"
 viewBox="0.00 0.00 658.00 284.00" xmlns="http://www.w3.org/2000/svg" xmlns:xlink="http://www.w3.org/1999/xlink">
<g id="graph0" class="graph" transform="scale(1 1) rotate(0) translate(4 280)">
<title>dependencies</title>
<polygon fill="#ffffff" stroke="transparent" points="-4,4 -4,-280 654,-280 654,4 -4,4"/>
<text text-anchor="start" x="304.0091" y="-42.4" font-family="sans-serif" font-weight="bold" font-size="14.00" fill="#000000">Legend</text>
<polygon fill="#ffffb3" stroke="transparent" points="91,-10 91,-30 111,-30 111,-10 91,-10"/>
<text text-anchor="start" x="114.629" y="-15.4" font-family="sans-serif" font-size="14.00" fill="#000000"> &#160;Declarations</text>
<polygon fill="#8dd3c7" stroke="transparent" points="204,-10 204,-30 224,-30 224,-10 204,-10"/>
<text text-anchor="start" x="227.7251" y="-15.4" font-family="sans-serif" font-size="14.00" fill="#000000"> &#160;Module</text>
<polygon fill="#80b1d3" stroke="transparent" points="290,-10 290,-30 310,-30 310,-10 290,-10"/>
<text text-anchor="start" x="313.7812" y="-15.4" font-family="sans-serif" font-size="14.00" fill="#000000"> &#160;Bootstrap</text>
<polygon fill="#fdb462" stroke="transparent" points="387,-10 387,-30 407,-30 407,-10 387,-10"/>
<text text-anchor="start" x="410.6732" y="-15.4" font-family="sans-serif" font-size="14.00" fill="#000000"> &#160;Providers</text>
<polygon fill="#fb8072" stroke="transparent" points="483,-10 483,-30 503,-30 503,-10 483,-10"/>
<text text-anchor="start" x="506.7258" y="-15.4" font-family="sans-serif" font-size="14.00" fill="#000000"> &#160;Exports</text>
<g id="clust1" class="cluster">
<title>cluster_PostModule</title>
<polygon fill="none" stroke="#000000" stroke-dasharray="1,5" points="8,-70 8,-268 642,-268 642,-70 8,-70"/>
</g>
<g id="clust2" class="cluster">
<title>cluster_PostModule_declarations</title>
<polygon fill="none" stroke="#000000" points="154,-78 154,-130 634,-130 634,-78 154,-78"/>
</g>
<g id="clust7" class="cluster">
<title>cluster_PostModule_exports</title>
<polygon fill="none" stroke="#000000" points="79,-208 79,-260 570,-260 570,-208 79,-208"/>
</g>
<g id="clust9" class="cluster">
<title>cluster_PostModule_providers</title>
<polygon fill="none" stroke="#000000" points="16,-78 16,-130 146,-130 146,-78 16,-78"/>
</g>
<!-- CreatePostComponent -->
<g id="node1" class="node">
<title>CreatePostComponent</title>
<polygon fill="#ffffb3" stroke="#000000" points="625.9818,-122 484.0182,-122 484.0182,-86 625.9818,-86 625.9818,-122"/>
<text text-anchor="middle" x="555" y="-99.8" font-family="Times,serif" font-size="14.00" fill="#000000">CreatePostComponent</text>
</g>
<!-- PostModule -->
<g id="node4" class="node">
<title>PostModule</title>
<polygon fill="#8dd3c7" stroke="#000000" points="370.6683,-187 367.6683,-191 346.6683,-191 343.6683,-187 287.3317,-187 287.3317,-151 370.6683,-151 370.6683,-187"/>
<text text-anchor="middle" x="329" y="-164.8" font-family="Times,serif" font-size="14.00" fill="#000000">PostModule</text>
</g>
<!-- CreatePostComponent&#45;&gt;PostModule -->
<g id="edge1" class="edge">
<title>CreatePostComponent&#45;&gt;PostModule</title>
<path fill="none" stroke="#000000" d="M522.875,-122.0225C522.875,-139.3734 522.875,-163 522.875,-163 522.875,-163 381.068,-163 381.068,-163"/>
<polygon fill="#000000" stroke="#000000" points="381.068,-159.5001 371.068,-163 381.068,-166.5001 381.068,-159.5001"/>
</g>
<!-- PostViewComponent -->
<g id="node2" class="node">
<title>PostViewComponent</title>
<polygon fill="#ffffb3" stroke="#000000" points="465.7688,-122 330.2312,-122 330.2312,-86 465.7688,-86 465.7688,-122"/>
<text text-anchor="middle" x="398" y="-99.8" font-family="Times,serif" font-size="14.00" fill="#000000">PostViewComponent</text>
</g>
<!-- PostViewComponent&#45;&gt;PostModule -->
<g id="edge2" class="edge">
<title>PostViewComponent&#45;&gt;PostModule</title>
<path fill="none" stroke="#000000" d="M350.4747,-122.1061C350.4747,-122.1061 350.4747,-140.991 350.4747,-140.991"/>
<polygon fill="#000000" stroke="#000000" points="346.9748,-140.9909 350.4747,-150.991 353.9748,-140.991 346.9748,-140.9909"/>
</g>
<!-- CreateTopicComponent -->
<g id="node3" class="node">
<title>CreateTopicComponent</title>
<polygon fill="#ffffb3" stroke="#000000" points="312.0226,-122 161.9774,-122 161.9774,-86 312.0226,-86 312.0226,-122"/>
<text text-anchor="middle" x="237" y="-99.8" font-family="Times,serif" font-size="14.00" fill="#000000">CreateTopicComponent</text>
</g>
<!-- CreateTopicComponent&#45;&gt;PostModule -->
<g id="edge3" class="edge">
<title>CreateTopicComponent&#45;&gt;PostModule</title>
<path fill="none" stroke="#000000" d="M299.7136,-122.1061C299.7136,-122.1061 299.7136,-140.991 299.7136,-140.991"/>
<polygon fill="#000000" stroke="#000000" points="296.2136,-140.9909 299.7136,-150.991 303.2136,-140.991 296.2136,-140.9909"/>
</g>
<!-- CreatePostComponent  -->
<g id="node5" class="node">
<title>CreatePostComponent </title>
<polygon fill="#fb8072" stroke="#000000" points="561.9826,-252 416.0174,-252 416.0174,-216 561.9826,-216 561.9826,-252"/>
<text text-anchor="middle" x="489" y="-229.8" font-family="Times,serif" font-size="14.00" fill="#000000">CreatePostComponent </text>
</g>
<!-- PostModule&#45;&gt;CreatePostComponent  -->
<g id="edge4" class="edge">
<title>PostModule&#45;&gt;CreatePostComponent </title>
<path fill="none" stroke="#000000" stroke-dasharray="5,2" d="M370.7314,-175C402.5949,-175 441.0717,-175 441.0717,-175 441.0717,-175 441.0717,-205.9775 441.0717,-205.9775"/>
<polygon fill="#000000" stroke="#000000" points="437.5718,-205.9774 441.0717,-215.9775 444.5718,-205.9775 437.5718,-205.9774"/>
</g>
<!-- PostViewComponent  -->
<g id="node6" class="node">
<title>PostViewComponent </title>
<polygon fill="#fb8072" stroke="#000000" points="398.7689,-252 259.2311,-252 259.2311,-216 398.7689,-216 398.7689,-252"/>
<text text-anchor="middle" x="329" y="-229.8" font-family="Times,serif" font-size="14.00" fill="#000000">PostViewComponent </text>
</g>
<!-- PostModule&#45;&gt;PostViewComponent  -->
<g id="edge5" class="edge">
<title>PostModule&#45;&gt;PostViewComponent </title>
<path fill="none" stroke="#000000" stroke-dasharray="5,2" d="M329,-187.1061C329,-187.1061 329,-205.991 329,-205.991"/>
<polygon fill="#000000" stroke="#000000" points="325.5001,-205.9909 329,-215.991 332.5001,-205.991 325.5001,-205.9909"/>
</g>
<!-- CreateTopicComponent  -->
<g id="node7" class="node">
<title>CreateTopicComponent </title>
<polygon fill="#fb8072" stroke="#000000" points="241.0218,-252 86.9782,-252 86.9782,-216 241.0218,-216 241.0218,-252"/>
<text text-anchor="middle" x="164" y="-229.8" font-family="Times,serif" font-size="14.00" fill="#000000">CreateTopicComponent </text>
</g>
<!-- PostModule&#45;&gt;CreateTopicComponent  -->
<g id="edge6" class="edge">
<title>PostModule&#45;&gt;CreateTopicComponent </title>
<path fill="none" stroke="#000000" stroke-dasharray="5,2" d="M287.2108,-175C249.99,-175 201.375,-175 201.375,-175 201.375,-175 201.375,-205.9775 201.375,-205.9775"/>
<polygon fill="#000000" stroke="#000000" points="197.8751,-205.9774 201.375,-215.9775 204.8751,-205.9775 197.8751,-205.9774"/>
</g>
<!-- PostService -->
<g id="node8" class="node">
<title>PostService</title>
<ellipse fill="#fdb462" stroke="#000000" cx="81" cy="-104" rx="56.7561" ry="18"/>
<text text-anchor="middle" x="81" y="-99.8" font-family="Times,serif" font-size="14.00" fill="#000000">PostService</text>
</g>
<!-- PostService&#45;&gt;PostModule -->
<g id="edge7" class="edge">
<title>PostService&#45;&gt;PostModule</title>
<path fill="none" stroke="#000000" d="M112.3085,-119.194C112.3085,-136.6752 112.3085,-163 112.3085,-163 112.3085,-163 277.2197,-163 277.2197,-163"/>
<polygon fill="#000000" stroke="#000000" points="277.2197,-166.5001 287.2197,-163 277.2197,-159.5001 277.2197,-166.5001"/>
</g>
</g>
</svg>
