<?xml version="1.0" encoding="UTF-8" standalone="no"?>
<!DOCTYPE svg PUBLIC "-//W3C//DTD SVG 1.1//EN"
 "http://www.w3.org/Graphics/SVG/1.1/DTD/svg11.dtd">
<!-- Generated by graphviz version 2.40.1 (20161225.0304)
 -->
<!-- Title: dependencies Pages: 1 -->
<svg width="866pt" height="211pt"
 viewBox="0.00 0.00 866.00 211.00" xmlns="http://www.w3.org/2000/svg" xmlns:xlink="http://www.w3.org/1999/xlink">
<g id="graph0" class="graph" transform="scale(1 1) rotate(0) translate(4 207)">
<title>dependencies</title>
<polygon fill="#ffffff" stroke="transparent" points="-4,4 -4,-207 862,-207 862,4 -4,4"/>
<text text-anchor="start" x="408.0091" y="-42.4" font-family="sans-serif" font-weight="bold" font-size="14.00" fill="#000000">Legend</text>
<polygon fill="#ffffb3" stroke="transparent" points="195,-10 195,-30 215,-30 215,-10 195,-10"/>
<text text-anchor="start" x="218.629" y="-15.4" font-family="sans-serif" font-size="14.00" fill="#000000"> &#160;Declarations</text>
<polygon fill="#8dd3c7" stroke="transparent" points="308,-10 308,-30 328,-30 328,-10 308,-10"/>
<text text-anchor="start" x="331.7251" y="-15.4" font-family="sans-serif" font-size="14.00" fill="#000000"> &#160;Module</text>
<polygon fill="#80b1d3" stroke="transparent" points="394,-10 394,-30 414,-30 414,-10 394,-10"/>
<text text-anchor="start" x="417.7812" y="-15.4" font-family="sans-serif" font-size="14.00" fill="#000000"> &#160;Bootstrap</text>
<polygon fill="#fdb462" stroke="transparent" points="491,-10 491,-30 511,-30 511,-10 491,-10"/>
<text text-anchor="start" x="514.6732" y="-15.4" font-family="sans-serif" font-size="14.00" fill="#000000"> &#160;Providers</text>
<polygon fill="#fb8072" stroke="transparent" points="587,-10 587,-30 607,-30 607,-10 587,-10"/>
<text text-anchor="start" x="610.7258" y="-15.4" font-family="sans-serif" font-size="14.00" fill="#000000"> &#160;Exports</text>
<g id="clust1" class="cluster">
<title>cluster_CalendarModule</title>
<polygon fill="none" stroke="#000000" stroke-dasharray="1,5" points="8,-70 8,-195 850,-195 850,-70 8,-70"/>
</g>
<g id="clust2" class="cluster">
<title>cluster_CalendarModule_declarations</title>
<polygon fill="none" stroke="#000000" points="694,-78 694,-130 842,-130 842,-78 694,-78"/>
</g>
<g id="clust4" class="cluster">
<title>cluster_CalendarModule_imports</title>
<polygon fill="none" stroke="#000000" points="410,-78 410,-130 686,-130 686,-78 410,-78"/>
</g>
<g id="clust7" class="cluster">
<title>cluster_CalendarModule_providers</title>
<polygon fill="none" stroke="#000000" points="16,-78 16,-130 402,-130 402,-78 16,-78"/>
</g>
<!-- CalendarComponent -->
<g id="node1" class="node">
<title>CalendarComponent</title>
<polygon fill="#ffffb3" stroke="#000000" points="833.8641,-122 702.1359,-122 702.1359,-86 833.8641,-86 833.8641,-122"/>
<text text-anchor="middle" x="768" y="-99.8" font-family="Times,serif" font-size="14.00" fill="#000000">CalendarComponent</text>
</g>
<!-- CalendarModule -->
<g id="node2" class="node">
<title>CalendarModule</title>
<polygon fill="#8dd3c7" stroke="#000000" points="551.0814,-187 548.0814,-191 527.0814,-191 524.0814,-187 440.9186,-187 440.9186,-151 551.0814,-151 551.0814,-187"/>
<text text-anchor="middle" x="496" y="-164.8" font-family="Times,serif" font-size="14.00" fill="#000000">CalendarModule</text>
</g>
<!-- CalendarComponent&#45;&gt;CalendarModule -->
<g id="edge1" class="edge">
<title>CalendarComponent&#45;&gt;CalendarModule</title>
<path fill="none" stroke="#000000" d="M768,-122.2843C768,-143.3211 768,-175 768,-175 768,-175 561.0433,-175 561.0433,-175"/>
<polygon fill="#000000" stroke="#000000" points="561.0433,-171.5001 551.0433,-175 561.0432,-178.5001 561.0433,-171.5001"/>
</g>
<!-- CoreModule -->
<g id="node3" class="node">
<title>CoreModule</title>
<polygon fill="#8dd3c7" stroke="#000000" points="678.2619,-122 675.2619,-126 654.2619,-126 651.2619,-122 591.7381,-122 591.7381,-86 678.2619,-86 678.2619,-122"/>
<text text-anchor="middle" x="635" y="-99.8" font-family="Times,serif" font-size="14.00" fill="#000000">CoreModule</text>
</g>
<!-- CoreModule&#45;&gt;CalendarModule -->
<g id="edge2" class="edge">
<title>CoreModule&#45;&gt;CalendarModule</title>
<path fill="none" stroke="#000000" d="M635,-122.0225C635,-139.3734 635,-163 635,-163 635,-163 561.3359,-163 561.3359,-163"/>
<polygon fill="#000000" stroke="#000000" points="561.3359,-159.5001 551.3359,-163 561.3358,-166.5001 561.3359,-159.5001"/>
</g>
<!-- CalendarRoutingModule -->
<g id="node4" class="node">
<title>CalendarRoutingModule</title>
<polygon fill="#8dd3c7" stroke="#000000" points="573.6993,-122 570.6993,-126 549.6993,-126 546.6993,-122 418.3007,-122 418.3007,-86 573.6993,-86 573.6993,-122"/>
<text text-anchor="middle" x="496" y="-99.8" font-family="Times,serif" font-size="14.00" fill="#000000">CalendarRoutingModule</text>
</g>
<!-- CalendarRoutingModule&#45;&gt;CalendarModule -->
<g id="edge3" class="edge">
<title>CalendarRoutingModule&#45;&gt;CalendarModule</title>
<path fill="none" stroke="#000000" d="M496,-122.1061C496,-122.1061 496,-140.991 496,-140.991"/>
<polygon fill="#000000" stroke="#000000" points="492.5001,-140.9909 496,-150.991 499.5001,-140.991 492.5001,-140.9909"/>
</g>
<!-- CalendarService -->
<g id="node5" class="node">
<title>CalendarService</title>
<ellipse fill="#fdb462" stroke="#000000" cx="319" cy="-104" rx="74.6956" ry="18"/>
<text text-anchor="middle" x="319" y="-99.8" font-family="Times,serif" font-size="14.00" fill="#000000">CalendarService</text>
</g>
<!-- CalendarService&#45;&gt;CalendarModule -->
<g id="edge4" class="edge">
<title>CalendarService&#45;&gt;CalendarModule</title>
<path fill="none" stroke="#000000" d="M319,-122.0225C319,-139.3734 319,-163 319,-163 319,-163 430.4817,-163 430.4817,-163"/>
<polygon fill="#000000" stroke="#000000" points="430.4818,-166.5001 440.4817,-163 430.4817,-159.5001 430.4818,-166.5001"/>
</g>
<!-- CalendarResolveGuard -->
<g id="node6" class="node">
<title>CalendarResolveGuard</title>
<ellipse fill="#fdb462" stroke="#000000" cx="125" cy="-104" rx="101.264" ry="18"/>
<text text-anchor="middle" x="125" y="-99.8" font-family="Times,serif" font-size="14.00" fill="#000000">CalendarResolveGuard</text>
</g>
<!-- CalendarResolveGuard&#45;&gt;CalendarModule -->
<g id="edge5" class="edge">
<title>CalendarResolveGuard&#45;&gt;CalendarModule</title>
<path fill="none" stroke="#000000" d="M125,-122.2843C125,-143.3211 125,-175 125,-175 125,-175 430.8582,-175 430.8582,-175"/>
<polygon fill="#000000" stroke="#000000" points="430.8582,-178.5001 440.8582,-175 430.8581,-171.5001 430.8582,-178.5001"/>
</g>
</g>
</svg>
