<?xml version="1.0" encoding="UTF-8" standalone="no"?>
<!DOCTYPE svg PUBLIC "-//W3C//DTD SVG 1.1//EN"
 "http://www.w3.org/Graphics/SVG/1.1/DTD/svg11.dtd">
<!-- Generated by graphviz version 2.40.1 (20161225.0304)
 -->
<!-- Title: dependencies Pages: 1 -->
<svg width="830pt" height="211pt"
 viewBox="0.00 0.00 830.00 211.00" xmlns="http://www.w3.org/2000/svg" xmlns:xlink="http://www.w3.org/1999/xlink">
<g id="graph0" class="graph" transform="scale(1 1) rotate(0) translate(4 207)">
<title>dependencies</title>
<polygon fill="#ffffff" stroke="transparent" points="-4,4 -4,-207 826,-207 826,4 -4,4"/>
<text text-anchor="start" x="390.0091" y="-42.4" font-family="sans-serif" font-weight="bold" font-size="14.00" fill="#000000">Legend</text>
<polygon fill="#ffffb3" stroke="transparent" points="177,-10 177,-30 197,-30 197,-10 177,-10"/>
<text text-anchor="start" x="200.629" y="-15.4" font-family="sans-serif" font-size="14.00" fill="#000000"> &#160;Declarations</text>
<polygon fill="#8dd3c7" stroke="transparent" points="290,-10 290,-30 310,-30 310,-10 290,-10"/>
<text text-anchor="start" x="313.7251" y="-15.4" font-family="sans-serif" font-size="14.00" fill="#000000"> &#160;Module</text>
<polygon fill="#80b1d3" stroke="transparent" points="376,-10 376,-30 396,-30 396,-10 376,-10"/>
<text text-anchor="start" x="399.7812" y="-15.4" font-family="sans-serif" font-size="14.00" fill="#000000"> &#160;Bootstrap</text>
<polygon fill="#fdb462" stroke="transparent" points="473,-10 473,-30 493,-30 493,-10 473,-10"/>
<text text-anchor="start" x="496.6732" y="-15.4" font-family="sans-serif" font-size="14.00" fill="#000000"> &#160;Providers</text>
<polygon fill="#fb8072" stroke="transparent" points="569,-10 569,-30 589,-30 589,-10 569,-10"/>
<text text-anchor="start" x="592.7258" y="-15.4" font-family="sans-serif" font-size="14.00" fill="#000000"> &#160;Exports</text>
<g id="clust1" class="cluster">
<title>cluster_KanbanModule</title>
<polygon fill="none" stroke="#000000" stroke-dasharray="1,5" points="8,-70 8,-195 814,-195 814,-70 8,-70"/>
</g>
<g id="clust2" class="cluster">
<title>cluster_KanbanModule_declarations</title>
<polygon fill="none" stroke="#000000" points="666,-78 666,-130 806,-130 806,-78 666,-78"/>
</g>
<g id="clust4" class="cluster">
<title>cluster_KanbanModule_imports</title>
<polygon fill="none" stroke="#000000" points="390,-78 390,-130 658,-130 658,-78 390,-78"/>
</g>
<g id="clust7" class="cluster">
<title>cluster_KanbanModule_providers</title>
<polygon fill="none" stroke="#000000" points="16,-78 16,-130 382,-130 382,-78 16,-78"/>
</g>
<!-- KanbanComponent -->
<g id="node1" class="node">
<title>KanbanComponent</title>
<polygon fill="#ffffb3" stroke="#000000" points="798.3683,-122 673.6317,-122 673.6317,-86 798.3683,-86 798.3683,-122"/>
<text text-anchor="middle" x="736" y="-99.8" font-family="Times,serif" font-size="14.00" fill="#000000">KanbanComponent</text>
</g>
<!-- KanbanModule -->
<g id="node2" class="node">
<title>KanbanModule</title>
<polygon fill="#8dd3c7" stroke="#000000" points="523.5856,-187 520.5856,-191 499.5856,-191 496.5856,-187 420.4144,-187 420.4144,-151 523.5856,-151 523.5856,-187"/>
<text text-anchor="middle" x="472" y="-164.8" font-family="Times,serif" font-size="14.00" fill="#000000">KanbanModule</text>
</g>
<!-- KanbanComponent&#45;&gt;KanbanModule -->
<g id="edge1" class="edge">
<title>KanbanComponent&#45;&gt;KanbanModule</title>
<path fill="none" stroke="#000000" d="M736,-122.2843C736,-143.3211 736,-175 736,-175 736,-175 533.8429,-175 533.8429,-175"/>
<polygon fill="#000000" stroke="#000000" points="533.8429,-171.5001 523.8429,-175 533.8429,-178.5001 533.8429,-171.5001"/>
</g>
<!-- CoreModule -->
<g id="node3" class="node">
<title>CoreModule</title>
<polygon fill="#8dd3c7" stroke="#000000" points="650.2619,-122 647.2619,-126 626.2619,-126 623.2619,-122 563.7381,-122 563.7381,-86 650.2619,-86 650.2619,-122"/>
<text text-anchor="middle" x="607" y="-99.8" font-family="Times,serif" font-size="14.00" fill="#000000">CoreModule</text>
</g>
<!-- CoreModule&#45;&gt;KanbanModule -->
<g id="edge2" class="edge">
<title>CoreModule&#45;&gt;KanbanModule</title>
<path fill="none" stroke="#000000" d="M607,-122.0225C607,-139.3734 607,-163 607,-163 607,-163 533.8084,-163 533.8084,-163"/>
<polygon fill="#000000" stroke="#000000" points="533.8085,-159.5001 523.8084,-163 533.8084,-166.5001 533.8085,-159.5001"/>
</g>
<!-- KanbanRoutingModule -->
<g id="node4" class="node">
<title>KanbanRoutingModule</title>
<polygon fill="#8dd3c7" stroke="#000000" points="546.2035,-122 543.2035,-126 522.2035,-126 519.2035,-122 397.7965,-122 397.7965,-86 546.2035,-86 546.2035,-122"/>
<text text-anchor="middle" x="472" y="-99.8" font-family="Times,serif" font-size="14.00" fill="#000000">KanbanRoutingModule</text>
</g>
<!-- KanbanRoutingModule&#45;&gt;KanbanModule -->
<g id="edge3" class="edge">
<title>KanbanRoutingModule&#45;&gt;KanbanModule</title>
<path fill="none" stroke="#000000" d="M472,-122.1061C472,-122.1061 472,-140.991 472,-140.991"/>
<polygon fill="#000000" stroke="#000000" points="468.5001,-140.9909 472,-150.991 475.5001,-140.991 468.5001,-140.9909"/>
</g>
<!-- KanbanService -->
<g id="node5" class="node">
<title>KanbanService</title>
<ellipse fill="#fdb462" stroke="#000000" cx="304" cy="-104" rx="70.0442" ry="18"/>
<text text-anchor="middle" x="304" y="-99.8" font-family="Times,serif" font-size="14.00" fill="#000000">KanbanService</text>
</g>
<!-- KanbanService&#45;&gt;KanbanModule -->
<g id="edge4" class="edge">
<title>KanbanService&#45;&gt;KanbanModule</title>
<path fill="none" stroke="#000000" d="M304,-122.0225C304,-139.3734 304,-163 304,-163 304,-163 410.2236,-163 410.2236,-163"/>
<polygon fill="#000000" stroke="#000000" points="410.2237,-166.5001 420.2236,-163 410.2236,-159.5001 410.2237,-166.5001"/>
</g>
<!-- KanbanResolveGuard -->
<g id="node6" class="node">
<title>KanbanResolveGuard</title>
<ellipse fill="#fdb462" stroke="#000000" cx="120" cy="-104" rx="96.1131" ry="18"/>
<text text-anchor="middle" x="120" y="-99.8" font-family="Times,serif" font-size="14.00" fill="#000000">KanbanResolveGuard</text>
</g>
<!-- KanbanResolveGuard&#45;&gt;KanbanModule -->
<g id="edge5" class="edge">
<title>KanbanResolveGuard&#45;&gt;KanbanModule</title>
<path fill="none" stroke="#000000" d="M120,-122.2843C120,-143.3211 120,-175 120,-175 120,-175 410.4392,-175 410.4392,-175"/>
<polygon fill="#000000" stroke="#000000" points="410.4392,-178.5001 420.4392,-175 410.4392,-171.5001 410.4392,-178.5001"/>
</g>
</g>
</svg>
