<?xml version="1.0" encoding="UTF-8" standalone="no"?>
<!DOCTYPE svg PUBLIC "-//W3C//DTD SVG 1.1//EN"
 "http://www.w3.org/Graphics/SVG/1.1/DTD/svg11.dtd">
<!-- Generated by graphviz version 2.40.1 (20161225.0304)
 -->
<!-- Title: dependencies Pages: 1 -->
<svg width="1100pt" height="284pt"
 viewBox="0.00 0.00 1100.00 284.00" xmlns="http://www.w3.org/2000/svg" xmlns:xlink="http://www.w3.org/1999/xlink">
<g id="graph0" class="graph" transform="scale(1 1) rotate(0) translate(4 280)">
<title>dependencies</title>
<polygon fill="#ffffff" stroke="transparent" points="-4,4 -4,-280 1096,-280 1096,4 -4,4"/>
<text text-anchor="start" x="525.0091" y="-42.4" font-family="sans-serif" font-weight="bold" font-size="14.00" fill="#000000">Legend</text>
<polygon fill="#ffffb3" stroke="transparent" points="312,-10 312,-30 332,-30 332,-10 312,-10"/>
<text text-anchor="start" x="335.629" y="-15.4" font-family="sans-serif" font-size="14.00" fill="#000000"> &#160;Declarations</text>
<polygon fill="#8dd3c7" stroke="transparent" points="425,-10 425,-30 445,-30 445,-10 425,-10"/>
<text text-anchor="start" x="448.7251" y="-15.4" font-family="sans-serif" font-size="14.00" fill="#000000"> &#160;Module</text>
<polygon fill="#80b1d3" stroke="transparent" points="511,-10 511,-30 531,-30 531,-10 511,-10"/>
<text text-anchor="start" x="534.7812" y="-15.4" font-family="sans-serif" font-size="14.00" fill="#000000"> &#160;Bootstrap</text>
<polygon fill="#fdb462" stroke="transparent" points="608,-10 608,-30 628,-30 628,-10 608,-10"/>
<text text-anchor="start" x="631.6732" y="-15.4" font-family="sans-serif" font-size="14.00" fill="#000000"> &#160;Providers</text>
<polygon fill="#fb8072" stroke="transparent" points="704,-10 704,-30 724,-30 724,-10 704,-10"/>
<text text-anchor="start" x="727.7258" y="-15.4" font-family="sans-serif" font-size="14.00" fill="#000000"> &#160;Exports</text>
<g id="clust1" class="cluster">
<title>cluster_AppModule</title>
<polygon fill="none" stroke="#000000" stroke-dasharray="1,5" points="8,-70 8,-268 1084,-268 1084,-70 8,-70"/>
</g>
<g id="clust2" class="cluster">
<title>cluster_AppModule_declarations</title>
<polygon fill="none" stroke="#000000" points="844,-78 844,-130 1076,-130 1076,-78 844,-78"/>
</g>
<g id="clust5" class="cluster">
<title>cluster_AppModule_imports</title>
<polygon fill="none" stroke="#000000" points="662,-78 662,-130 836,-130 836,-78 662,-78"/>
</g>
<g id="clust7" class="cluster">
<title>cluster_AppModule_bootstrap</title>
<polygon fill="none" stroke="#000000" points="583,-208 583,-260 707,-260 707,-208 583,-208"/>
</g>
<g id="clust8" class="cluster">
<title>cluster_AppModule_providers</title>
<polygon fill="none" stroke="#000000" points="16,-78 16,-130 654,-130 654,-78 16,-78"/>
</g>
<!-- AppComponent -->
<g id="node1" class="node">
<title>AppComponent</title>
<polygon fill="#ffffb3" stroke="#000000" points="1067.9399,-122 962.0601,-122 962.0601,-86 1067.9399,-86 1067.9399,-122"/>
<text text-anchor="middle" x="1015" y="-99.8" font-family="Times,serif" font-size="14.00" fill="#000000">AppComponent</text>
</g>
<!-- AppModule -->
<g id="node3" class="node">
<title>AppModule</title>
<polygon fill="#8dd3c7" stroke="#000000" points="686.6571,-187 683.6571,-191 662.6571,-191 659.6571,-187 603.3429,-187 603.3429,-151 686.6571,-151 686.6571,-187"/>
<text text-anchor="middle" x="645" y="-164.8" font-family="Times,serif" font-size="14.00" fill="#000000">AppModule</text>
</g>
<!-- AppComponent&#45;&gt;AppModule -->
<g id="edge1" class="edge">
<title>AppComponent&#45;&gt;AppModule</title>
<path fill="none" stroke="#000000" d="M1015,-122.2921C1015,-144.2057 1015,-178 1015,-178 1015,-178 696.7245,-178 696.7245,-178"/>
<polygon fill="#000000" stroke="#000000" points="696.7245,-174.5001 686.7245,-178 696.7244,-181.5001 696.7245,-174.5001"/>
</g>
<!-- ContinuePipe -->
<g id="node2" class="node">
<title>ContinuePipe</title>
<polygon fill="#ffffb3" stroke="#000000" points="944.2205,-122 851.7795,-122 851.7795,-86 944.2205,-86 944.2205,-122"/>
<text text-anchor="middle" x="898" y="-99.8" font-family="Times,serif" font-size="14.00" fill="#000000">ContinuePipe</text>
</g>
<!-- ContinuePipe&#45;&gt;AppModule -->
<g id="edge2" class="edge">
<title>ContinuePipe&#45;&gt;AppModule</title>
<path fill="none" stroke="#000000" d="M898,-122.1061C898,-141.3391 898,-169 898,-169 898,-169 696.7778,-169 696.7778,-169"/>
<polygon fill="#000000" stroke="#000000" points="696.7778,-165.5001 686.7778,-169 696.7778,-172.5001 696.7778,-165.5001"/>
</g>
<!-- AppComponent  -->
<g id="node6" class="node">
<title>AppComponent </title>
<polygon fill="#80b1d3" stroke="#000000" points="699.439,-252 590.561,-252 590.561,-216 699.439,-216 699.439,-252"/>
<text text-anchor="middle" x="645" y="-229.8" font-family="Times,serif" font-size="14.00" fill="#000000">AppComponent </text>
</g>
<!-- AppModule&#45;&gt;AppComponent  -->
<g id="edge5" class="edge">
<title>AppModule&#45;&gt;AppComponent </title>
<path fill="none" stroke="#000000" stroke-dasharray="1,5" d="M645,-187.1061C645,-187.1061 645,-205.991 645,-205.991"/>
<polygon fill="#000000" stroke="#000000" points="641.5001,-205.9909 645,-215.991 648.5001,-205.991 641.5001,-205.9909"/>
</g>
<!-- routing -->
<g id="node4" class="node">
<title>routing</title>
<polygon fill="#8dd3c7" stroke="#000000" points="828.4435,-122 825.4435,-126 804.4435,-126 801.4435,-122 771.5565,-122 771.5565,-86 828.4435,-86 828.4435,-122"/>
<text text-anchor="middle" x="800" y="-99.8" font-family="Times,serif" font-size="14.00" fill="#000000">routing</text>
</g>
<!-- routing&#45;&gt;AppModule -->
<g id="edge3" class="edge">
<title>routing&#45;&gt;AppModule</title>
<path fill="none" stroke="#000000" d="M800,-122.027C800,-138.3976 800,-160 800,-160 800,-160 696.9452,-160 696.9452,-160"/>
<polygon fill="#000000" stroke="#000000" points="696.9453,-156.5001 686.9452,-160 696.9452,-163.5001 696.9453,-156.5001"/>
</g>
<!-- PostModule -->
<g id="node5" class="node">
<title>PostModule</title>
<polygon fill="#8dd3c7" stroke="#000000" points="753.6683,-122 750.6683,-126 729.6683,-126 726.6683,-122 670.3317,-122 670.3317,-86 753.6683,-86 753.6683,-122"/>
<text text-anchor="middle" x="712" y="-99.8" font-family="Times,serif" font-size="14.00" fill="#000000">PostModule</text>
</g>
<!-- PostModule&#45;&gt;AppModule -->
<g id="edge4" class="edge">
<title>PostModule&#45;&gt;AppModule</title>
<path fill="none" stroke="#000000" d="M678.4972,-122.1061C678.4972,-122.1061 678.4972,-140.991 678.4972,-140.991"/>
<polygon fill="#000000" stroke="#000000" points="674.9973,-140.9909 678.4972,-150.991 681.9973,-140.991 674.9973,-140.9909"/>
</g>
<!-- SharedService -->
<g id="node7" class="node">
<title>SharedService</title>
<ellipse fill="#fdb462" stroke="#000000" cx="579" cy="-104" rx="66.6113" ry="18"/>
<text text-anchor="middle" x="579" y="-99.8" font-family="Times,serif" font-size="14.00" fill="#000000">SharedService</text>
</g>
<!-- SharedService&#45;&gt;AppModule -->
<g id="edge6" class="edge">
<title>SharedService&#45;&gt;AppModule</title>
<path fill="none" stroke="#000000" d="M624.4886,-117.468C624.4886,-117.468 624.4886,-140.8642 624.4886,-140.8642"/>
<polygon fill="#000000" stroke="#000000" points="620.9887,-140.8641 624.4886,-150.8642 627.9887,-140.8642 620.9887,-140.8641"/>
</g>
<!-- AuthInterceptor -->
<g id="node8" class="node">
<title>AuthInterceptor</title>
<ellipse fill="#fdb462" stroke="#000000" cx="421" cy="-104" rx="72.9121" ry="18"/>
<text text-anchor="middle" x="421" y="-99.8" font-family="Times,serif" font-size="14.00" fill="#000000">AuthInterceptor</text>
</g>
<!-- AuthInterceptor&#45;&gt;AppModule -->
<g id="edge7" class="edge">
<title>AuthInterceptor&#45;&gt;AppModule</title>
<path fill="none" stroke="#000000" d="M421,-122.027C421,-138.3976 421,-160 421,-160 421,-160 593.1301,-160 593.1301,-160"/>
<polygon fill="#000000" stroke="#000000" points="593.1301,-163.5001 603.1301,-160 593.13,-156.5001 593.1301,-163.5001"/>
</g>
<!-- ContainerService -->
<g id="node9" class="node">
<title>ContainerService</title>
<ellipse fill="#fdb462" stroke="#000000" cx="252" cy="-104" rx="78.1462" ry="18"/>
<text text-anchor="middle" x="252" y="-99.8" font-family="Times,serif" font-size="14.00" fill="#000000">ContainerService</text>
</g>
<!-- ContainerService&#45;&gt;AppModule -->
<g id="edge8" class="edge">
<title>ContainerService&#45;&gt;AppModule</title>
<path fill="none" stroke="#000000" d="M252,-122.1061C252,-141.3391 252,-169 252,-169 252,-169 593.3142,-169 593.3142,-169"/>
<polygon fill="#000000" stroke="#000000" points="593.3142,-172.5001 603.3142,-169 593.3141,-165.5001 593.3142,-172.5001"/>
</g>
<!-- EventsService -->
<g id="node10" class="node">
<title>EventsService</title>
<ellipse fill="#fdb462" stroke="#000000" cx="90" cy="-104" rx="66.0492" ry="18"/>
<text text-anchor="middle" x="90" y="-99.8" font-family="Times,serif" font-size="14.00" fill="#000000">EventsService</text>
</g>
<!-- EventsService&#45;&gt;AppModule -->
<g id="edge9" class="edge">
<title>EventsService&#45;&gt;AppModule</title>
<path fill="none" stroke="#000000" d="M90,-122.2921C90,-144.2057 90,-178 90,-178 90,-178 593.2848,-178 593.2848,-178"/>
<polygon fill="#000000" stroke="#000000" points="593.2848,-181.5001 603.2848,-178 593.2848,-174.5001 593.2848,-181.5001"/>
</g>
</g>
</svg>
