<?xml version="1.0" encoding="UTF-8" standalone="no"?>
<!DOCTYPE svg PUBLIC "-//W3C//DTD SVG 1.1//EN"
 "http://www.w3.org/Graphics/SVG/1.1/DTD/svg11.dtd">
<!-- Generated by graphviz version 2.40.1 (20161225.0304)
 -->
<!-- Title: dependencies Pages: 1 -->
<svg width="2284pt" height="211pt"
 viewBox="0.00 0.00 2284.00 211.00" xmlns="http://www.w3.org/2000/svg" xmlns:xlink="http://www.w3.org/1999/xlink">
<g id="graph0" class="graph" transform="scale(1 1) rotate(0) translate(4 207)">
<title>dependencies</title>
<polygon fill="#ffffff" stroke="transparent" points="-4,4 -4,-207 2280,-207 2280,4 -4,4"/>
<text text-anchor="start" x="1117.0091" y="-42.4" font-family="sans-serif" font-weight="bold" font-size="14.00" fill="#000000">Legend</text>
<polygon fill="#ffffb3" stroke="transparent" points="904,-10 904,-30 924,-30 924,-10 904,-10"/>
<text text-anchor="start" x="927.629" y="-15.4" font-family="sans-serif" font-size="14.00" fill="#000000"> &#160;Declarations</text>
<polygon fill="#8dd3c7" stroke="transparent" points="1017,-10 1017,-30 1037,-30 1037,-10 1017,-10"/>
<text text-anchor="start" x="1040.7251" y="-15.4" font-family="sans-serif" font-size="14.00" fill="#000000"> &#160;Module</text>
<polygon fill="#80b1d3" stroke="transparent" points="1103,-10 1103,-30 1123,-30 1123,-10 1103,-10"/>
<text text-anchor="start" x="1126.7812" y="-15.4" font-family="sans-serif" font-size="14.00" fill="#000000"> &#160;Bootstrap</text>
<polygon fill="#fdb462" stroke="transparent" points="1200,-10 1200,-30 1220,-30 1220,-10 1200,-10"/>
<text text-anchor="start" x="1223.6732" y="-15.4" font-family="sans-serif" font-size="14.00" fill="#000000"> &#160;Providers</text>
<polygon fill="#fb8072" stroke="transparent" points="1296,-10 1296,-30 1316,-30 1316,-10 1296,-10"/>
<text text-anchor="start" x="1319.7258" y="-15.4" font-family="sans-serif" font-size="14.00" fill="#000000"> &#160;Exports</text>
<g id="clust1" class="cluster">
<title>cluster_LayoutModule</title>
<polygon fill="none" stroke="#000000" stroke-dasharray="1,5" points="8,-70 8,-195 2268,-195 2268,-70 8,-70"/>
</g>
<g id="clust2" class="cluster">
<title>cluster_LayoutModule_declarations</title>
<polygon fill="none" stroke="#000000" points="1331,-78 1331,-130 2260,-130 2260,-78 1331,-78"/>
</g>
<g id="clust9" class="cluster">
<title>cluster_LayoutModule_imports</title>
<polygon fill="none" stroke="#000000" points="884,-78 884,-130 1323,-130 1323,-78 884,-78"/>
</g>
<g id="clust12" class="cluster">
<title>cluster_LayoutModule_providers</title>
<polygon fill="none" stroke="#000000" points="16,-78 16,-130 876,-130 876,-78 16,-78"/>
</g>
<!-- LayoutComponent -->
<g id="node1" class="node">
<title>LayoutComponent</title>
<polygon fill="#ffffb3" stroke="#000000" points="2252.4902,-122 2131.5098,-122 2131.5098,-86 2252.4902,-86 2252.4902,-122"/>
<text text-anchor="middle" x="2192" y="-99.8" font-family="Times,serif" font-size="14.00" fill="#000000">LayoutComponent</text>
</g>
<!-- LayoutModule -->
<g id="node7" class="node">
<title>LayoutModule</title>
<polygon fill="#8dd3c7" stroke="#000000" points="1209.7078,-187 1206.7078,-191 1185.7078,-191 1182.7078,-187 1110.2922,-187 1110.2922,-151 1209.7078,-151 1209.7078,-187"/>
<text text-anchor="middle" x="1160" y="-164.8" font-family="Times,serif" font-size="14.00" fill="#000000">LayoutModule</text>
</g>
<!-- LayoutComponent&#45;&gt;LayoutModule -->
<g id="edge1" class="edge">
<title>LayoutComponent&#45;&gt;LayoutModule</title>
<path fill="none" stroke="#000000" d="M2192,-122.3228C2192,-145.6602 2192,-183 2192,-183 2192,-183 1219.7755,-183 1219.7755,-183"/>
<polygon fill="#000000" stroke="#000000" points="1219.7755,-179.5001 1209.7755,-183 1219.7755,-186.5001 1219.7755,-179.5001"/>
</g>
<!-- HeaderComponent -->
<g id="node2" class="node">
<title>HeaderComponent</title>
<polygon fill="#ffffb3" stroke="#000000" points="2113.7437,-122 1992.2563,-122 1992.2563,-86 2113.7437,-86 2113.7437,-122"/>
<text text-anchor="middle" x="2053" y="-99.8" font-family="Times,serif" font-size="14.00" fill="#000000">HeaderComponent</text>
</g>
<!-- HeaderComponent&#45;&gt;LayoutModule -->
<g id="edge2" class="edge">
<title>HeaderComponent&#45;&gt;LayoutModule</title>
<path fill="none" stroke="#000000" d="M2053,-122.2921C2053,-144.2057 2053,-178 2053,-178 2053,-178 1219.6038,-178 1219.6038,-178"/>
<polygon fill="#000000" stroke="#000000" points="1219.6039,-174.5001 1209.6038,-178 1219.6038,-181.5001 1219.6039,-174.5001"/>
</g>
<!-- SearchComponent -->
<g id="node3" class="node">
<title>SearchComponent</title>
<polygon fill="#ffffb3" stroke="#000000" points="1973.9201,-122 1854.0799,-122 1854.0799,-86 1973.9201,-86 1973.9201,-122"/>
<text text-anchor="middle" x="1914" y="-99.8" font-family="Times,serif" font-size="14.00" fill="#000000">SearchComponent</text>
</g>
<!-- SearchComponent&#45;&gt;LayoutModule -->
<g id="edge3" class="edge">
<title>SearchComponent&#45;&gt;LayoutModule</title>
<path fill="none" stroke="#000000" d="M1914,-122.0267C1914,-142.7672 1914,-174 1914,-174 1914,-174 1219.7636,-174 1219.7636,-174"/>
<polygon fill="#000000" stroke="#000000" points="1219.7637,-170.5001 1209.7636,-174 1219.7636,-177.5001 1219.7637,-170.5001"/>
</g>
<!-- NavigationComponent -->
<g id="node4" class="node">
<title>NavigationComponent</title>
<polygon fill="#ffffb3" stroke="#000000" points="1836.5407,-122 1693.4593,-122 1693.4593,-86 1836.5407,-86 1836.5407,-122"/>
<text text-anchor="middle" x="1765" y="-99.8" font-family="Times,serif" font-size="14.00" fill="#000000">NavigationComponent</text>
</g>
<!-- NavigationComponent&#45;&gt;LayoutModule -->
<g id="edge4" class="edge">
<title>NavigationComponent&#45;&gt;LayoutModule</title>
<path fill="none" stroke="#000000" d="M1765,-122.1061C1765,-141.3391 1765,-169 1765,-169 1765,-169 1219.7668,-169 1219.7668,-169"/>
<polygon fill="#000000" stroke="#000000" points="1219.7668,-165.5001 1209.7668,-169 1219.7667,-172.5001 1219.7668,-165.5001"/>
</g>
<!-- NavigationTriggerComponent -->
<g id="node5" class="node">
<title>NavigationTriggerComponent</title>
<polygon fill="#ffffb3" stroke="#000000" points="1674.5196,-122 1489.4804,-122 1489.4804,-86 1674.5196,-86 1674.5196,-122"/>
<text text-anchor="middle" x="1582" y="-99.8" font-family="Times,serif" font-size="14.00" fill="#000000">NavigationTriggerComponent</text>
</g>
<!-- NavigationTriggerComponent&#45;&gt;LayoutModule -->
<g id="edge5" class="edge">
<title>NavigationTriggerComponent&#45;&gt;LayoutModule</title>
<path fill="none" stroke="#000000" d="M1582,-122.302C1582,-140.2699 1582,-165 1582,-165 1582,-165 1219.6497,-165 1219.6497,-165"/>
<polygon fill="#000000" stroke="#000000" points="1219.6497,-161.5001 1209.6497,-165 1219.6497,-168.5001 1219.6497,-161.5001"/>
</g>
<!-- AddUserComponent -->
<g id="node6" class="node">
<title>AddUserComponent</title>
<polygon fill="#ffffb3" stroke="#000000" points="1470.8655,-122 1339.1345,-122 1339.1345,-86 1470.8655,-86 1470.8655,-122"/>
<text text-anchor="middle" x="1405" y="-99.8" font-family="Times,serif" font-size="14.00" fill="#000000">AddUserComponent</text>
</g>
<!-- AddUserComponent&#45;&gt;LayoutModule -->
<g id="edge6" class="edge">
<title>AddUserComponent&#45;&gt;LayoutModule</title>
<path fill="none" stroke="#000000" d="M1405,-122.027C1405,-138.3976 1405,-160 1405,-160 1405,-160 1219.8747,-160 1219.8747,-160"/>
<polygon fill="#000000" stroke="#000000" points="1219.8747,-156.5001 1209.8747,-160 1219.8747,-163.5001 1219.8747,-156.5001"/>
</g>
<!-- CoreModule -->
<g id="node8" class="node">
<title>CoreModule</title>
<polygon fill="#8dd3c7" stroke="#000000" points="1315.2619,-122 1312.2619,-126 1291.2619,-126 1288.2619,-122 1228.7381,-122 1228.7381,-86 1315.2619,-86 1315.2619,-122"/>
<text text-anchor="middle" x="1272" y="-99.8" font-family="Times,serif" font-size="14.00" fill="#000000">CoreModule</text>
</g>
<!-- CoreModule&#45;&gt;LayoutModule -->
<g id="edge7" class="edge">
<title>CoreModule&#45;&gt;LayoutModule</title>
<path fill="none" stroke="#000000" d="M1272,-122.1871C1272,-137.1824 1272,-156 1272,-156 1272,-156 1219.7771,-156 1219.7771,-156"/>
<polygon fill="#000000" stroke="#000000" points="1219.7771,-152.5001 1209.7771,-156 1219.777,-159.5001 1219.7771,-152.5001"/>
</g>
<!-- LayoutRouting -->
<g id="node9" class="node">
<title>LayoutRouting</title>
<polygon fill="#8dd3c7" stroke="#000000" points="1210.2758,-122 1207.2758,-126 1186.2758,-126 1183.2758,-122 1109.7242,-122 1109.7242,-86 1210.2758,-86 1210.2758,-122"/>
<text text-anchor="middle" x="1160" y="-99.8" font-family="Times,serif" font-size="14.00" fill="#000000">LayoutRouting</text>
</g>
<!-- LayoutRouting&#45;&gt;LayoutModule -->
<g id="edge8" class="edge">
<title>LayoutRouting&#45;&gt;LayoutModule</title>
<path fill="none" stroke="#000000" d="M1160,-122.1061C1160,-122.1061 1160,-140.991 1160,-140.991"/>
<polygon fill="#000000" stroke="#000000" points="1156.5001,-140.9909 1160,-150.991 1163.5001,-140.991 1156.5001,-140.9909"/>
</g>
<!-- ProfileModule -->
<g id="node10" class="node">
<title>ProfileModule</title>
<polygon fill="#8dd3c7" stroke="#000000" points="1091.65,-122 1088.65,-126 1067.65,-126 1064.65,-122 994.35,-122 994.35,-86 1091.65,-86 1091.65,-122"/>
<text text-anchor="middle" x="1043" y="-99.8" font-family="Times,serif" font-size="14.00" fill="#000000">ProfileModule</text>
</g>
<!-- ProfileModule&#45;&gt;LayoutModule -->
<g id="edge9" class="edge">
<title>ProfileModule&#45;&gt;LayoutModule</title>
<path fill="none" stroke="#000000" d="M1043,-122.1871C1043,-137.1824 1043,-156 1043,-156 1043,-156 1100.3815,-156 1100.3815,-156"/>
<polygon fill="#000000" stroke="#000000" points="1100.3815,-159.5001 1110.3815,-156 1100.3814,-152.5001 1100.3815,-159.5001"/>
</g>
<!-- PostModule -->
<g id="node11" class="node">
<title>PostModule</title>
<polygon fill="#8dd3c7" stroke="#000000" points="975.6683,-122 972.6683,-126 951.6683,-126 948.6683,-122 892.3317,-122 892.3317,-86 975.6683,-86 975.6683,-122"/>
<text text-anchor="middle" x="934" y="-99.8" font-family="Times,serif" font-size="14.00" fill="#000000">PostModule</text>
</g>
<!-- PostModule&#45;&gt;LayoutModule -->
<g id="edge10" class="edge">
<title>PostModule&#45;&gt;LayoutModule</title>
<path fill="none" stroke="#000000" d="M934,-122.027C934,-138.3976 934,-160 934,-160 934,-160 1100.1236,-160 1100.1236,-160"/>
<polygon fill="#000000" stroke="#000000" points="1100.1236,-163.5001 1110.1236,-160 1100.1235,-156.5001 1100.1236,-163.5001"/>
</g>
<!-- CalendarService -->
<g id="node12" class="node">
<title>CalendarService</title>
<ellipse fill="#fdb462" stroke="#000000" cx="793" cy="-104" rx="74.6956" ry="18"/>
<text text-anchor="middle" x="793" y="-99.8" font-family="Times,serif" font-size="14.00" fill="#000000">CalendarService</text>
</g>
<!-- CalendarService&#45;&gt;LayoutModule -->
<g id="edge11" class="edge">
<title>CalendarService&#45;&gt;LayoutModule</title>
<path fill="none" stroke="#000000" d="M793,-122.302C793,-140.2699 793,-165 793,-165 793,-165 1100.1228,-165 1100.1228,-165"/>
<polygon fill="#000000" stroke="#000000" points="1100.1228,-168.5001 1110.1228,-165 1100.1228,-161.5001 1100.1228,-168.5001"/>
</g>
<!-- LayoutResolveGuard -->
<g id="node13" class="node">
<title>LayoutResolveGuard</title>
<ellipse fill="#fdb462" stroke="#000000" cx="607" cy="-104" rx="93.763" ry="18"/>
<text text-anchor="middle" x="607" y="-99.8" font-family="Times,serif" font-size="14.00" fill="#000000">LayoutResolveGuard</text>
</g>
<!-- LayoutResolveGuard&#45;&gt;LayoutModule -->
<g id="edge12" class="edge">
<title>LayoutResolveGuard&#45;&gt;LayoutModule</title>
<path fill="none" stroke="#000000" d="M607,-122.1061C607,-141.3391 607,-169 607,-169 607,-169 1099.9496,-169 1099.9496,-169"/>
<polygon fill="#000000" stroke="#000000" points="1099.9496,-172.5001 1109.9496,-169 1099.9496,-165.5001 1099.9496,-172.5001"/>
</g>
<!-- AuthGuard -->
<g id="node14" class="node">
<title>AuthGuard</title>
<ellipse fill="#fdb462" stroke="#000000" cx="441" cy="-104" rx="54.4566" ry="18"/>
<text text-anchor="middle" x="441" y="-99.8" font-family="Times,serif" font-size="14.00" fill="#000000">AuthGuard</text>
</g>
<!-- AuthGuard&#45;&gt;LayoutModule -->
<g id="edge13" class="edge">
<title>AuthGuard&#45;&gt;LayoutModule</title>
<path fill="none" stroke="#000000" d="M441,-122.0267C441,-142.7672 441,-174 441,-174 441,-174 1100.2965,-174 1100.2965,-174"/>
<polygon fill="#000000" stroke="#000000" points="1100.2966,-177.5001 1110.2965,-174 1100.2965,-170.5001 1100.2966,-177.5001"/>
</g>
<!-- AuthService -->
<g id="node15" class="node">
<title>AuthService</title>
<ellipse fill="#fdb462" stroke="#000000" cx="309" cy="-104" rx="59.1083" ry="18"/>
<text text-anchor="middle" x="309" y="-99.8" font-family="Times,serif" font-size="14.00" fill="#000000">AuthService</text>
</g>
<!-- AuthService&#45;&gt;LayoutModule -->
<g id="edge14" class="edge">
<title>AuthService&#45;&gt;LayoutModule</title>
<path fill="none" stroke="#000000" d="M309,-122.2921C309,-144.2057 309,-178 309,-178 309,-178 1100.2562,-178 1100.2562,-178"/>
<polygon fill="#000000" stroke="#000000" points="1100.2562,-181.5001 1110.2562,-178 1100.2561,-174.5001 1100.2562,-181.5001"/>
</g>
<!-- PostViewResolveGuard -->
<g id="node16" class="node">
<title>PostViewResolveGuard</title>
<ellipse fill="#fdb462" stroke="#000000" cx="128" cy="-104" rx="103.6508" ry="18"/>
<text text-anchor="middle" x="128" y="-99.8" font-family="Times,serif" font-size="14.00" fill="#000000">PostViewResolveGuard</text>
</g>
<!-- PostViewResolveGuard&#45;&gt;LayoutModule -->
<g id="edge15" class="edge">
<title>PostViewResolveGuard&#45;&gt;LayoutModule</title>
<path fill="none" stroke="#000000" d="M128,-122.3228C128,-145.6602 128,-183 128,-183 128,-183 1100.2245,-183 1100.2245,-183"/>
<polygon fill="#000000" stroke="#000000" points="1100.2245,-186.5001 1110.2245,-183 1100.2245,-179.5001 1100.2245,-186.5001"/>
</g>
</g>
</svg>
