<?xml version="1.0" encoding="UTF-8" standalone="no"?>
<!DOCTYPE svg PUBLIC "-//W3C//DTD SVG 1.1//EN"
 "http://www.w3.org/Graphics/SVG/1.1/DTD/svg11.dtd">
<!-- Generated by graphviz version 2.40.1 (20161225.0304)
 -->
<!-- Title: dependencies Pages: 1 -->
<svg width="5370pt" height="374pt"
 viewBox="0.00 0.00 5370.00 374.00" xmlns="http://www.w3.org/2000/svg" xmlns:xlink="http://www.w3.org/1999/xlink">
<g id="graph0" class="graph" transform="scale(1 1) rotate(0) translate(4 370)">
<title>dependencies</title>
<polygon fill="#ffffff" stroke="transparent" points="-4,4 -4,-370 5366,-370 5366,4 -4,4"/>
<text text-anchor="start" x="2660.0091" y="-42.4" font-family="sans-serif" font-weight="bold" font-size="14.00" fill="#000000">Legend</text>
<polygon fill="#ffffb3" stroke="transparent" points="2447,-10 2447,-30 2467,-30 2467,-10 2447,-10"/>
<text text-anchor="start" x="2470.629" y="-15.4" font-family="sans-serif" font-size="14.00" fill="#000000"> &#160;Declarations</text>
<polygon fill="#8dd3c7" stroke="transparent" points="2560,-10 2560,-30 2580,-30 2580,-10 2560,-10"/>
<text text-anchor="start" x="2583.7251" y="-15.4" font-family="sans-serif" font-size="14.00" fill="#000000"> &#160;Module</text>
<polygon fill="#80b1d3" stroke="transparent" points="2646,-10 2646,-30 2666,-30 2666,-10 2646,-10"/>
<text text-anchor="start" x="2669.7812" y="-15.4" font-family="sans-serif" font-size="14.00" fill="#000000"> &#160;Bootstrap</text>
<polygon fill="#fdb462" stroke="transparent" points="2743,-10 2743,-30 2763,-30 2763,-10 2743,-10"/>
<text text-anchor="start" x="2766.6732" y="-15.4" font-family="sans-serif" font-size="14.00" fill="#000000"> &#160;Providers</text>
<polygon fill="#fb8072" stroke="transparent" points="2839,-10 2839,-30 2859,-30 2859,-10 2839,-10"/>
<text text-anchor="start" x="2862.7258" y="-15.4" font-family="sans-serif" font-size="14.00" fill="#000000"> &#160;Exports</text>
<g id="clust1" class="cluster">
<title>cluster_AppModule</title>
<polygon fill="none" stroke="#000000" stroke-dasharray="1,5" points="4068,-146 4068,-358 5144,-358 5144,-146 4068,-146"/>
</g>
<g id="clust2" class="cluster">
<title>cluster_AppModule_declarations</title>
<polygon fill="none" stroke="#000000" points="4904,-154 4904,-206 5136,-206 5136,-154 4904,-154"/>
</g>
<g id="clust5" class="cluster">
<title>cluster_AppModule_imports</title>
<polygon fill="none" stroke="#000000" points="4076,-154 4076,-206 4250,-206 4250,-154 4076,-154"/>
</g>
<g id="clust7" class="cluster">
<title>cluster_AppModule_bootstrap</title>
<polygon fill="none" stroke="#000000" points="4527,-298 4527,-350 4651,-350 4651,-298 4527,-298"/>
</g>
<g id="clust8" class="cluster">
<title>cluster_AppModule_providers</title>
<polygon fill="none" stroke="#000000" points="4258,-154 4258,-206 4896,-206 4896,-154 4258,-154"/>
</g>
<g id="clust9" class="cluster">
<title>cluster_CalendarModule</title>
<polygon fill="none" stroke="#000000" stroke-dasharray="1,5" points="2634,-222 2634,-350 3476,-350 3476,-222 2634,-222"/>
</g>
<g id="clust10" class="cluster">
<title>cluster_CalendarModule_declarations</title>
<polygon fill="none" stroke="#000000" points="3320,-230 3320,-282 3468,-282 3468,-230 3320,-230"/>
</g>
<g id="clust12" class="cluster">
<title>cluster_CalendarModule_imports</title>
<polygon fill="none" stroke="#000000" points="3036,-230 3036,-282 3312,-282 3312,-230 3036,-230"/>
</g>
<g id="clust15" class="cluster">
<title>cluster_CalendarModule_providers</title>
<polygon fill="none" stroke="#000000" points="2642,-230 2642,-282 3028,-282 3028,-230 2642,-230"/>
</g>
<g id="clust22" class="cluster">
<title>cluster_CoreModule</title>
<polygon fill="none" stroke="#000000" stroke-dasharray="1,5" points="3484,-290 3484,-358 3604,-358 3604,-290 3484,-290"/>
</g>
<g id="clust25" class="cluster">
<title>cluster_CoreModule_exports</title>
<polygon fill="none" stroke="#000000" points="3492,-298 3492,-350 3596,-350 3596,-298 3492,-298"/>
</g>
<g id="clust28" class="cluster">
<title>cluster_KanbanModule</title>
<polygon fill="none" stroke="#000000" stroke-dasharray="1,5" points="8,-222 8,-350 710,-350 710,-222 8,-222"/>
</g>
<g id="clust29" class="cluster">
<title>cluster_KanbanModule_declarations</title>
<polygon fill="none" stroke="#000000" points="562,-230 562,-282 702,-282 702,-230 562,-230"/>
</g>
<g id="clust31" class="cluster">
<title>cluster_KanbanModule_imports</title>
<polygon fill="none" stroke="#000000" points="390,-230 390,-282 554,-282 554,-230 390,-230"/>
</g>
<g id="clust34" class="cluster">
<title>cluster_KanbanModule_providers</title>
<polygon fill="none" stroke="#000000" points="16,-230 16,-282 382,-282 382,-230 16,-230"/>
</g>
<g id="clust41" class="cluster">
<title>cluster_LayoutModule</title>
<polygon fill="none" stroke="#000000" stroke-dasharray="1,5" points="718,-222 718,-350 2604,-350 2604,-222 718,-222"/>
</g>
<g id="clust42" class="cluster">
<title>cluster_LayoutModule_declarations</title>
<polygon fill="none" stroke="#000000" points="1667,-230 1667,-282 2596,-282 2596,-230 1667,-230"/>
</g>
<g id="clust49" class="cluster">
<title>cluster_LayoutModule_imports</title>
<polygon fill="none" stroke="#000000" points="1427,-230 1427,-282 1659,-282 1659,-230 1427,-230"/>
</g>
<g id="clust52" class="cluster">
<title>cluster_LayoutModule_providers</title>
<polygon fill="none" stroke="#000000" points="726,-230 726,-282 1419,-282 1419,-230 726,-230"/>
</g>
<g id="clust53" class="cluster">
<title>cluster_PagesModule</title>
<polygon fill="none" stroke="#000000" stroke-dasharray="1,5" points="3612,-222 3612,-350 4060,-350 4060,-222 3612,-222"/>
</g>
<g id="clust54" class="cluster">
<title>cluster_PagesModule_declarations</title>
<polygon fill="none" stroke="#000000" points="3782,-230 3782,-282 4052,-282 4052,-230 3782,-230"/>
</g>
<g id="clust57" class="cluster">
<title>cluster_PagesModule_imports</title>
<polygon fill="none" stroke="#000000" points="3620,-230 3620,-282 3774,-282 3774,-230 3620,-230"/>
</g>
<g id="clust67" class="cluster">
<title>cluster_PostModule</title>
<polygon fill="none" stroke="#000000" stroke-dasharray="1,5" points="3574,-70 3574,-138 4707,-138 4707,-70 3574,-70"/>
</g>
<g id="clust68" class="cluster">
<title>cluster_PostModule_declarations</title>
<polygon fill="none" stroke="#000000" points="4219,-78 4219,-130 4699,-130 4699,-78 4219,-78"/>
</g>
<g id="clust73" class="cluster">
<title>cluster_PostModule_exports</title>
<polygon fill="none" stroke="#000000" points="3720,-78 3720,-130 4211,-130 4211,-78 3720,-78"/>
</g>
<g id="clust75" class="cluster">
<title>cluster_PostModule_providers</title>
<polygon fill="none" stroke="#000000" points="3582,-78 3582,-130 3712,-130 3712,-78 3582,-78"/>
</g>
<g id="clust76" class="cluster">
<title>cluster_ProfileModule</title>
<polygon fill="none" stroke="#000000" stroke-dasharray="1,5" points="1408,-146 1408,-214 1560,-214 1560,-146 1408,-146"/>
</g>
<g id="clust77" class="cluster">
<title>cluster_ProfileModule_declarations</title>
<polygon fill="none" stroke="#000000" points="1416,-154 1416,-206 1552,-206 1552,-154 1416,-154"/>
</g>
<g id="clust83" class="cluster">
<title>cluster_TypeaheadComponentModule</title>
<polygon fill="none" stroke="#000000" stroke-dasharray="1,5" points="5152,-70 5152,-206 5354,-206 5354,-70 5152,-70"/>
</g>
<g id="clust84" class="cluster">
<title>cluster_TypeaheadComponentModule_declarations</title>
<polygon fill="none" stroke="#000000" points="5174,-78 5174,-130 5332,-130 5332,-78 5174,-78"/>
</g>
<!-- AppComponent -->
<g id="node1" class="node">
<title>AppComponent</title>
<polygon fill="#ffffb3" stroke="#000000" points="5127.9399,-198 5022.0601,-198 5022.0601,-162 5127.9399,-162 5127.9399,-198"/>
<text text-anchor="middle" x="5075" y="-175.8" font-family="Times,serif" font-size="14.00" fill="#000000">AppComponent</text>
</g>
<!-- AppModule -->
<g id="node3" class="node">
<title>AppModule</title>
<polygon fill="#8dd3c7" stroke="#000000" points="4630.6571,-274 4627.6571,-278 4606.6571,-278 4603.6571,-274 4547.3429,-274 4547.3429,-238 4630.6571,-238 4630.6571,-274"/>
<text text-anchor="middle" x="4589" y="-251.8" font-family="Times,serif" font-size="14.00" fill="#000000">AppModule</text>
</g>
<!-- AppComponent&#45;&gt;AppModule -->
<g id="edge1" class="edge">
<title>AppComponent&#45;&gt;AppModule</title>
<path fill="none" stroke="#000000" d="M5075,-198.0263C5075,-222.9773 5075,-265 5075,-265 5075,-265 4640.8567,-265 4640.8567,-265"/>
<polygon fill="#000000" stroke="#000000" points="4640.8568,-261.5001 4630.8567,-265 4640.8567,-268.5001 4640.8568,-261.5001"/>
</g>
<!-- ContinuePipe -->
<g id="node2" class="node">
<title>ContinuePipe</title>
<polygon fill="#ffffb3" stroke="#000000" points="5004.2205,-198 4911.7795,-198 4911.7795,-162 5004.2205,-162 5004.2205,-198"/>
<text text-anchor="middle" x="4958" y="-175.8" font-family="Times,serif" font-size="14.00" fill="#000000">ContinuePipe</text>
</g>
<!-- ContinuePipe&#45;&gt;AppModule -->
<g id="edge2" class="edge">
<title>ContinuePipe&#45;&gt;AppModule</title>
<path fill="none" stroke="#000000" d="M4958,-198.0109C4958,-220.4852 4958,-256 4958,-256 4958,-256 4640.9697,-256 4640.9697,-256"/>
<polygon fill="#000000" stroke="#000000" points="4640.9698,-252.5001 4630.9697,-256 4640.9697,-259.5001 4640.9698,-252.5001"/>
</g>
<!-- AppComponent  -->
<g id="node6" class="node">
<title>AppComponent </title>
<polygon fill="#80b1d3" stroke="#000000" points="4643.439,-342 4534.561,-342 4534.561,-306 4643.439,-306 4643.439,-342"/>
<text text-anchor="middle" x="4589" y="-319.8" font-family="Times,serif" font-size="14.00" fill="#000000">AppComponent </text>
</g>
<!-- AppModule&#45;&gt;AppComponent  -->
<g id="edge5" class="edge">
<title>AppModule&#45;&gt;AppComponent </title>
<path fill="none" stroke="#000000" stroke-dasharray="1,5" d="M4589,-274.2228C4589,-274.2228 4589,-295.7269 4589,-295.7269"/>
<polygon fill="#000000" stroke="#000000" points="4585.5001,-295.7269 4589,-305.7269 4592.5001,-295.727 4585.5001,-295.7269"/>
</g>
<!-- routing -->
<g id="node4" class="node">
<title>routing</title>
<polygon fill="#8dd3c7" stroke="#000000" points="4242.4435,-198 4239.4435,-202 4218.4435,-202 4215.4435,-198 4185.5565,-198 4185.5565,-162 4242.4435,-162 4242.4435,-198"/>
<text text-anchor="middle" x="4214" y="-175.8" font-family="Times,serif" font-size="14.00" fill="#000000">routing</text>
</g>
<!-- routing&#45;&gt;AppModule -->
<g id="edge3" class="edge">
<title>routing&#45;&gt;AppModule</title>
<path fill="none" stroke="#000000" d="M4214,-198.0109C4214,-220.4852 4214,-256 4214,-256 4214,-256 4537.0743,-256 4537.0743,-256"/>
<polygon fill="#000000" stroke="#000000" points="4537.0743,-259.5001 4547.0743,-256 4537.0743,-252.5001 4537.0743,-259.5001"/>
</g>
<!-- PostModule -->
<g id="node5" class="node">
<title>PostModule</title>
<polygon fill="#8dd3c7" stroke="#000000" points="4167.6683,-198 4164.6683,-202 4143.6683,-202 4140.6683,-198 4084.3317,-198 4084.3317,-162 4167.6683,-162 4167.6683,-198"/>
<text text-anchor="middle" x="4126" y="-175.8" font-family="Times,serif" font-size="14.00" fill="#000000">PostModule</text>
</g>
<!-- PostModule&#45;&gt;AppModule -->
<g id="edge4" class="edge">
<title>PostModule&#45;&gt;AppModule</title>
<path fill="none" stroke="#000000" d="M4126,-198.0263C4126,-222.9773 4126,-265 4126,-265 4126,-265 4537.0952,-265 4537.0952,-265"/>
<polygon fill="#000000" stroke="#000000" points="4537.0953,-268.5001 4547.0952,-265 4537.0952,-261.5001 4537.0953,-268.5001"/>
</g>
<!-- CoreModule -->
<g id="node13" class="node">
<title>CoreModule</title>
<polygon fill="#8dd3c7" stroke="#000000" points="3304.2619,-274 3301.2619,-278 3280.2619,-278 3277.2619,-274 3217.7381,-274 3217.7381,-238 3304.2619,-238 3304.2619,-274"/>
<text text-anchor="middle" x="3261" y="-251.8" font-family="Times,serif" font-size="14.00" fill="#000000">CoreModule</text>
</g>
<!-- PostModule&#45;&gt;CoreModule -->
<g id="edge15" class="edge">
<title>PostModule&#45;&gt;CoreModule</title>
<path fill="none" stroke="#000000" d="M4084.1735,-192C3909.3967,-192 3246.5397,-192 3246.5397,-192 3246.5397,-192 3246.5397,-227.8314 3246.5397,-227.8314"/>
<polygon fill="#000000" stroke="#000000" points="3243.0398,-227.8313 3246.5397,-237.8314 3250.0398,-227.8314 3243.0398,-227.8313"/>
</g>
<!-- LayoutModule -->
<g id="node29" class="node">
<title>LayoutModule</title>
<polygon fill="#8dd3c7" stroke="#000000" points="1924.7078,-342 1921.7078,-346 1900.7078,-346 1897.7078,-342 1825.2922,-342 1825.2922,-306 1924.7078,-306 1924.7078,-342"/>
<text text-anchor="middle" x="1875" y="-319.8" font-family="Times,serif" font-size="14.00" fill="#000000">LayoutModule</text>
</g>
<!-- PostModule&#45;&gt;LayoutModule -->
<g id="edge32" class="edge">
<title>PostModule&#45;&gt;LayoutModule</title>
<path fill="none" stroke="#000000" d="M4083.9727,-186C3825.2355,-186 2459.5302,-186 2459.5302,-186 2459.5302,-186 2459.5302,-330 2459.5302,-330 2459.5302,-330 1934.8367,-330 1934.8367,-330"/>
<polygon fill="#000000" stroke="#000000" points="1934.8367,-326.5001 1924.8367,-330 1934.8367,-333.5001 1934.8367,-326.5001"/>
</g>
<!-- CreatePostComponent  -->
<g id="node43" class="node">
<title>CreatePostComponent </title>
<polygon fill="#fb8072" stroke="#000000" points="4030.9826,-122 3885.0174,-122 3885.0174,-86 4030.9826,-86 4030.9826,-122"/>
<text text-anchor="middle" x="3958" y="-99.8" font-family="Times,serif" font-size="14.00" fill="#000000">CreatePostComponent </text>
</g>
<!-- PostModule&#45;&gt;CreatePostComponent  -->
<g id="edge45" class="edge">
<title>PostModule&#45;&gt;CreatePostComponent </title>
<path fill="none" stroke="#000000" stroke-dasharray="5,2" d="M4084.2129,-168C4041.1223,-168 3980.1766,-168 3980.1766,-168 3980.1766,-168 3980.1766,-132.1686 3980.1766,-132.1686"/>
<polygon fill="#000000" stroke="#000000" points="3983.6766,-132.1686 3980.1766,-122.1686 3976.6766,-132.1687 3983.6766,-132.1686"/>
</g>
<!-- PostViewComponent  -->
<g id="node44" class="node">
<title>PostViewComponent </title>
<polygon fill="#fb8072" stroke="#000000" points="3867.7689,-122 3728.2311,-122 3728.2311,-86 3867.7689,-86 3867.7689,-122"/>
<text text-anchor="middle" x="3798" y="-99.8" font-family="Times,serif" font-size="14.00" fill="#000000">PostViewComponent </text>
</g>
<!-- PostModule&#45;&gt;PostViewComponent  -->
<g id="edge46" class="edge">
<title>PostModule&#45;&gt;PostViewComponent </title>
<path fill="none" stroke="#000000" stroke-dasharray="5,2" d="M4084.0864,-174C4002.2362,-174 3829.0658,-174 3829.0658,-174 3829.0658,-174 3829.0658,-132.0267 3829.0658,-132.0267"/>
<polygon fill="#000000" stroke="#000000" points="3832.5658,-132.0267 3829.0658,-122.0267 3825.5658,-132.0268 3832.5658,-132.0267"/>
</g>
<!-- CreateTopicComponent  -->
<g id="node45" class="node">
<title>CreateTopicComponent </title>
<polygon fill="#fb8072" stroke="#000000" points="4203.0218,-122 4048.9782,-122 4048.9782,-86 4203.0218,-86 4203.0218,-122"/>
<text text-anchor="middle" x="4126" y="-99.8" font-family="Times,serif" font-size="14.00" fill="#000000">CreateTopicComponent </text>
</g>
<!-- PostModule&#45;&gt;CreateTopicComponent  -->
<g id="edge47" class="edge">
<title>PostModule&#45;&gt;CreateTopicComponent </title>
<path fill="none" stroke="#000000" stroke-dasharray="5,2" d="M4100.8997,-161.9891C4100.8997,-161.9891 4100.8997,-132.145 4100.8997,-132.145"/>
<polygon fill="#000000" stroke="#000000" points="4104.3998,-132.145 4100.8997,-122.145 4097.3998,-132.1451 4104.3998,-132.145"/>
</g>
<!-- SharedService -->
<g id="node7" class="node">
<title>SharedService</title>
<ellipse fill="#fdb462" stroke="#000000" cx="4671" cy="-180" rx="66.6113" ry="18"/>
<text text-anchor="middle" x="4671" y="-175.8" font-family="Times,serif" font-size="14.00" fill="#000000">SharedService</text>
</g>
<!-- SharedService&#45;&gt;AppModule -->
<g id="edge6" class="edge">
<title>SharedService&#45;&gt;AppModule</title>
<path fill="none" stroke="#000000" d="M4617.5114,-190.8889C4617.5114,-190.8889 4617.5114,-227.7946 4617.5114,-227.7946"/>
<polygon fill="#000000" stroke="#000000" points="4614.0115,-227.7946 4617.5114,-237.7946 4621.0115,-227.7946 4614.0115,-227.7946"/>
</g>
<!-- AuthInterceptor -->
<g id="node8" class="node">
<title>AuthInterceptor</title>
<ellipse fill="#fdb462" stroke="#000000" cx="4339" cy="-180" rx="72.9121" ry="18"/>
<text text-anchor="middle" x="4339" y="-175.8" font-family="Times,serif" font-size="14.00" fill="#000000">AuthInterceptor</text>
</g>
<!-- AuthInterceptor&#45;&gt;AppModule -->
<g id="edge7" class="edge">
<title>AuthInterceptor&#45;&gt;AppModule</title>
<path fill="none" stroke="#000000" d="M4363.2353,-197.2542C4363.2353,-217.1058 4363.2353,-247 4363.2353,-247 4363.2353,-247 4537.3282,-247 4537.3282,-247"/>
<polygon fill="#000000" stroke="#000000" points="4537.3282,-250.5001 4547.3282,-247 4537.3281,-243.5001 4537.3282,-250.5001"/>
</g>
<!-- AuthInterceptor&#45;&gt;CoreModule -->
<g id="edge17" class="edge">
<title>AuthInterceptor&#45;&gt;CoreModule</title>
<path fill="none" stroke="#000000" d="M4314.7647,-197.2211C4314.7647,-207.2754 4314.7647,-218 4314.7647,-218 4314.7647,-218 3275.4603,-218 3275.4603,-218 3275.4603,-218 3275.4603,-227.8903 3275.4603,-227.8903"/>
<polygon fill="#000000" stroke="#000000" points="3271.9604,-227.8903 3275.4603,-237.8903 3278.9604,-227.8904 3271.9604,-227.8903"/>
</g>
<!-- ContainerService -->
<g id="node9" class="node">
<title>ContainerService</title>
<ellipse fill="#fdb462" stroke="#000000" cx="4508" cy="-180" rx="78.1462" ry="18"/>
<text text-anchor="middle" x="4508" y="-175.8" font-family="Times,serif" font-size="14.00" fill="#000000">ContainerService</text>
</g>
<!-- ContainerService&#45;&gt;AppModule -->
<g id="edge8" class="edge">
<title>ContainerService&#45;&gt;AppModule</title>
<path fill="none" stroke="#000000" d="M4566.6224,-192.2107C4566.6224,-192.2107 4566.6224,-227.864 4566.6224,-227.864"/>
<polygon fill="#000000" stroke="#000000" points="4563.1225,-227.864 4566.6224,-237.864 4570.1225,-227.864 4563.1225,-227.864"/>
</g>
<!-- EventsService -->
<g id="node10" class="node">
<title>EventsService</title>
<ellipse fill="#fdb462" stroke="#000000" cx="4822" cy="-180" rx="66.0492" ry="18"/>
<text text-anchor="middle" x="4822" y="-175.8" font-family="Times,serif" font-size="14.00" fill="#000000">EventsService</text>
</g>
<!-- EventsService&#45;&gt;AppModule -->
<g id="edge9" class="edge">
<title>EventsService&#45;&gt;AppModule</title>
<path fill="none" stroke="#000000" d="M4822,-198.308C4822,-218.1455 4822,-247 4822,-247 4822,-247 4640.9248,-247 4640.9248,-247"/>
<polygon fill="#000000" stroke="#000000" points="4640.9249,-243.5001 4630.9248,-247 4640.9248,-250.5001 4640.9249,-243.5001"/>
</g>
<!-- CalendarComponent -->
<g id="node11" class="node">
<title>CalendarComponent</title>
<polygon fill="#ffffb3" stroke="#000000" points="3459.8641,-274 3328.1359,-274 3328.1359,-238 3459.8641,-238 3459.8641,-274"/>
<text text-anchor="middle" x="3394" y="-251.8" font-family="Times,serif" font-size="14.00" fill="#000000">CalendarComponent</text>
</g>
<!-- CalendarModule -->
<g id="node12" class="node">
<title>CalendarModule</title>
<polygon fill="#8dd3c7" stroke="#000000" points="3177.0814,-342 3174.0814,-346 3153.0814,-346 3150.0814,-342 3066.9186,-342 3066.9186,-306 3177.0814,-306 3177.0814,-342"/>
<text text-anchor="middle" x="3122" y="-319.8" font-family="Times,serif" font-size="14.00" fill="#000000">CalendarModule</text>
</g>
<!-- CalendarComponent&#45;&gt;CalendarModule -->
<g id="edge10" class="edge">
<title>CalendarComponent&#45;&gt;CalendarModule</title>
<path fill="none" stroke="#000000" d="M3394,-274.2479C3394,-297.0179 3394,-333 3394,-333 3394,-333 3187.0433,-333 3187.0433,-333"/>
<polygon fill="#000000" stroke="#000000" points="3187.0433,-329.5001 3177.0433,-333 3187.0432,-336.5001 3187.0433,-329.5001"/>
</g>
<!-- CoreModule&#45;&gt;CalendarModule -->
<g id="edge11" class="edge">
<title>CoreModule&#45;&gt;CalendarModule</title>
<path fill="none" stroke="#000000" d="M3275.4603,-274.2228C3275.4603,-294.3652 3275.4603,-324 3275.4603,-324 3275.4603,-324 3187.4027,-324 3187.4027,-324"/>
<polygon fill="#000000" stroke="#000000" points="3187.4027,-320.5001 3177.4027,-324 3187.4026,-327.5001 3187.4027,-320.5001"/>
</g>
<!-- PostModule  -->
<g id="node17" class="node">
<title>PostModule </title>
<polygon fill="#fb8072" stroke="#000000" points="3587.6678,-342 3500.3322,-342 3500.3322,-306 3587.6678,-306 3587.6678,-342"/>
<text text-anchor="middle" x="3544" y="-319.8" font-family="Times,serif" font-size="14.00" fill="#000000">PostModule </text>
</g>
<!-- CoreModule&#45;&gt;PostModule  -->
<g id="edge16" class="edge">
<title>CoreModule&#45;&gt;PostModule </title>
<path fill="none" stroke="#000000" stroke-dasharray="5,2" d="M3289.9205,-274.0225C3289.9205,-291.3734 3289.9205,-315 3289.9205,-315 3289.9205,-315 3490.3222,-315 3490.3222,-315"/>
<polygon fill="#000000" stroke="#000000" points="3490.3222,-318.5001 3500.3222,-315 3490.3221,-311.5001 3490.3222,-318.5001"/>
</g>
<!-- KanbanModule -->
<g id="node19" class="node">
<title>KanbanModule</title>
<polygon fill="#8dd3c7" stroke="#000000" points="523.5856,-342 520.5856,-346 499.5856,-346 496.5856,-342 420.4144,-342 420.4144,-306 523.5856,-306 523.5856,-342"/>
<text text-anchor="middle" x="472" y="-319.8" font-family="Times,serif" font-size="14.00" fill="#000000">KanbanModule</text>
</g>
<!-- CoreModule&#45;&gt;KanbanModule -->
<g id="edge19" class="edge">
<title>CoreModule&#45;&gt;KanbanModule</title>
<path fill="none" stroke="#000000" d="M3232.0795,-274.0579C3232.0795,-278.4945 3232.0795,-282 3232.0795,-282 3232.0795,-282 489.1809,-282 489.1809,-282 489.1809,-282 489.1809,-295.9445 489.1809,-295.9445"/>
<polygon fill="#000000" stroke="#000000" points="485.681,-295.9444 489.1809,-305.9445 492.681,-295.9445 485.681,-295.9444"/>
</g>
<!-- CoreModule&#45;&gt;LayoutModule -->
<g id="edge29" class="edge">
<title>CoreModule&#45;&gt;LayoutModule</title>
<path fill="none" stroke="#000000" d="M3246.5397,-274.1944C3246.5397,-282.2782 3246.5397,-290 3246.5397,-290 3246.5397,-290 1891.5346,-290 1891.5346,-290 1891.5346,-290 1891.5346,-295.8056 1891.5346,-295.8056"/>
<polygon fill="#000000" stroke="#000000" points="1888.0347,-295.8055 1891.5346,-305.8056 1895.0347,-295.8056 1888.0347,-295.8055"/>
</g>
<!-- PagesModule -->
<g id="node38" class="node">
<title>PagesModule</title>
<polygon fill="#8dd3c7" stroke="#000000" points="3820.2064,-342 3817.2064,-346 3796.2064,-346 3793.2064,-342 3727.7936,-342 3727.7936,-306 3820.2064,-306 3820.2064,-342"/>
<text text-anchor="middle" x="3774" y="-319.8" font-family="Times,serif" font-size="14.00" fill="#000000">PagesModule</text>
</g>
<!-- CoreModule&#45;&gt;PagesModule -->
<g id="edge40" class="edge">
<title>CoreModule&#45;&gt;PagesModule</title>
<path fill="none" stroke="#000000" d="M3261,-274.0555C3261,-285.439 3261,-298 3261,-298 3261,-298 3740.4853,-298 3740.4853,-298 3740.4853,-298 3740.4853,-298.7942 3740.4853,-298.7942"/>
<polygon fill="#000000" stroke="#000000" points="3736.9854,-295.9421 3740.4853,-305.9421 3743.9854,-295.9422 3736.9854,-295.9421"/>
</g>
<!-- CalendarRoutingModule -->
<g id="node14" class="node">
<title>CalendarRoutingModule</title>
<polygon fill="#8dd3c7" stroke="#000000" points="3199.6993,-274 3196.6993,-278 3175.6993,-278 3172.6993,-274 3044.3007,-274 3044.3007,-238 3199.6993,-238 3199.6993,-274"/>
<text text-anchor="middle" x="3122" y="-251.8" font-family="Times,serif" font-size="14.00" fill="#000000">CalendarRoutingModule</text>
</g>
<!-- CalendarRoutingModule&#45;&gt;CalendarModule -->
<g id="edge12" class="edge">
<title>CalendarRoutingModule&#45;&gt;CalendarModule</title>
<path fill="none" stroke="#000000" d="M3122,-274.2228C3122,-274.2228 3122,-295.7269 3122,-295.7269"/>
<polygon fill="#000000" stroke="#000000" points="3118.5001,-295.7269 3122,-305.7269 3125.5001,-295.727 3118.5001,-295.7269"/>
</g>
<!-- CalendarService -->
<g id="node15" class="node">
<title>CalendarService</title>
<ellipse fill="#fdb462" stroke="#000000" cx="2725" cy="-256" rx="74.6956" ry="18"/>
<text text-anchor="middle" x="2725" y="-251.8" font-family="Times,serif" font-size="14.00" fill="#000000">CalendarService</text>
</g>
<!-- CalendarService&#45;&gt;CalendarModule -->
<g id="edge13" class="edge">
<title>CalendarService&#45;&gt;CalendarModule</title>
<path fill="none" stroke="#000000" d="M2749.9492,-273.0882C2749.9492,-290.1968 2749.9492,-314 2749.9492,-314 2749.9492,-314 3056.702,-314 3056.702,-314"/>
<polygon fill="#000000" stroke="#000000" points="3056.702,-317.5001 3066.702,-314 3056.7019,-310.5001 3056.702,-317.5001"/>
</g>
<!-- CalendarService&#45;&gt;LayoutModule -->
<g id="edge33" class="edge">
<title>CalendarService&#45;&gt;LayoutModule</title>
<path fill="none" stroke="#000000" d="M2700.0508,-272.9905C2700.0508,-297.0088 2700.0508,-338 2700.0508,-338 2700.0508,-338 1934.7526,-338 1934.7526,-338"/>
<polygon fill="#000000" stroke="#000000" points="1934.7526,-334.5001 1924.7526,-338 1934.7526,-341.5001 1934.7526,-334.5001"/>
</g>
<!-- CalendarResolveGuard -->
<g id="node16" class="node">
<title>CalendarResolveGuard</title>
<ellipse fill="#fdb462" stroke="#000000" cx="2919" cy="-256" rx="101.264" ry="18"/>
<text text-anchor="middle" x="2919" y="-251.8" font-family="Times,serif" font-size="14.00" fill="#000000">CalendarResolveGuard</text>
</g>
<!-- CalendarResolveGuard&#45;&gt;CalendarModule -->
<g id="edge14" class="edge">
<title>CalendarResolveGuard&#45;&gt;CalendarModule</title>
<path fill="none" stroke="#000000" d="M2919,-274.2819C2919,-289.9478 2919,-310 2919,-310 2919,-310 3056.7975,-310 3056.7975,-310"/>
<polygon fill="#000000" stroke="#000000" points="3056.7975,-313.5001 3066.7975,-310 3056.7975,-306.5001 3056.7975,-313.5001"/>
</g>
<!-- KanbanComponent -->
<g id="node18" class="node">
<title>KanbanComponent</title>
<polygon fill="#ffffb3" stroke="#000000" points="694.3683,-274 569.6317,-274 569.6317,-238 694.3683,-238 694.3683,-274"/>
<text text-anchor="middle" x="632" y="-251.8" font-family="Times,serif" font-size="14.00" fill="#000000">KanbanComponent</text>
</g>
<!-- KanbanComponent&#45;&gt;KanbanModule -->
<g id="edge18" class="edge">
<title>KanbanComponent&#45;&gt;KanbanModule</title>
<path fill="none" stroke="#000000" d="M632,-274.2819C632,-289.9478 632,-310 632,-310 632,-310 533.9474,-310 533.9474,-310"/>
<polygon fill="#000000" stroke="#000000" points="533.9474,-306.5001 523.9474,-310 533.9474,-313.5001 533.9474,-306.5001"/>
</g>
<!-- KanbanRoutingModule -->
<g id="node20" class="node">
<title>KanbanRoutingModule</title>
<polygon fill="#8dd3c7" stroke="#000000" points="546.2035,-274 543.2035,-278 522.2035,-278 519.2035,-274 397.7965,-274 397.7965,-238 546.2035,-238 546.2035,-274"/>
<text text-anchor="middle" x="472" y="-251.8" font-family="Times,serif" font-size="14.00" fill="#000000">KanbanRoutingModule</text>
</g>
<!-- KanbanRoutingModule&#45;&gt;KanbanModule -->
<g id="edge20" class="edge">
<title>KanbanRoutingModule&#45;&gt;KanbanModule</title>
<path fill="none" stroke="#000000" d="M454.8191,-274.2228C454.8191,-274.2228 454.8191,-295.7269 454.8191,-295.7269"/>
<polygon fill="#000000" stroke="#000000" points="451.3192,-295.7269 454.8191,-305.7269 458.3192,-295.727 451.3192,-295.7269"/>
</g>
<!-- KanbanService -->
<g id="node21" class="node">
<title>KanbanService</title>
<ellipse fill="#fdb462" stroke="#000000" cx="304" cy="-256" rx="70.0442" ry="18"/>
<text text-anchor="middle" x="304" y="-251.8" font-family="Times,serif" font-size="14.00" fill="#000000">KanbanService</text>
</g>
<!-- KanbanService&#45;&gt;KanbanModule -->
<g id="edge21" class="edge">
<title>KanbanService&#45;&gt;KanbanModule</title>
<path fill="none" stroke="#000000" d="M304,-274.2667C304,-292.5552 304,-318 304,-318 304,-318 410.2236,-318 410.2236,-318"/>
<polygon fill="#000000" stroke="#000000" points="410.2237,-321.5001 420.2236,-318 410.2236,-314.5001 410.2237,-321.5001"/>
</g>
<!-- KanbanResolveGuard -->
<g id="node22" class="node">
<title>KanbanResolveGuard</title>
<ellipse fill="#fdb462" stroke="#000000" cx="120" cy="-256" rx="96.1131" ry="18"/>
<text text-anchor="middle" x="120" y="-251.8" font-family="Times,serif" font-size="14.00" fill="#000000">KanbanResolveGuard</text>
</g>
<!-- KanbanResolveGuard&#45;&gt;KanbanModule -->
<g id="edge22" class="edge">
<title>KanbanResolveGuard&#45;&gt;KanbanModule</title>
<path fill="none" stroke="#000000" d="M120,-274.2921C120,-296.2057 120,-330 120,-330 120,-330 410.4392,-330 410.4392,-330"/>
<polygon fill="#000000" stroke="#000000" points="410.4392,-333.5001 420.4392,-330 410.4392,-326.5001 410.4392,-333.5001"/>
</g>
<!-- LayoutComponent -->
<g id="node23" class="node">
<title>LayoutComponent</title>
<polygon fill="#ffffb3" stroke="#000000" points="1935.4902,-274 1814.5098,-274 1814.5098,-238 1935.4902,-238 1935.4902,-274"/>
<text text-anchor="middle" x="1875" y="-251.8" font-family="Times,serif" font-size="14.00" fill="#000000">LayoutComponent</text>
</g>
<!-- LayoutComponent&#45;&gt;LayoutModule -->
<g id="edge23" class="edge">
<title>LayoutComponent&#45;&gt;LayoutModule</title>
<path fill="none" stroke="#000000" d="M1858.4654,-274.2228C1858.4654,-274.2228 1858.4654,-295.7269 1858.4654,-295.7269"/>
<polygon fill="#000000" stroke="#000000" points="1854.9655,-295.7269 1858.4654,-305.7269 1861.9655,-295.727 1854.9655,-295.7269"/>
</g>
<!-- HeaderComponent -->
<g id="node24" class="node">
<title>HeaderComponent</title>
<polygon fill="#ffffb3" stroke="#000000" points="1796.7437,-274 1675.2563,-274 1675.2563,-238 1796.7437,-238 1796.7437,-274"/>
<text text-anchor="middle" x="1736" y="-251.8" font-family="Times,serif" font-size="14.00" fill="#000000">HeaderComponent</text>
</g>
<!-- HeaderComponent&#45;&gt;LayoutModule -->
<g id="edge24" class="edge">
<title>HeaderComponent&#45;&gt;LayoutModule</title>
<path fill="none" stroke="#000000" d="M1736,-274.0336C1736,-291.0597 1736,-314 1736,-314 1736,-314 1815.2104,-314 1815.2104,-314"/>
<polygon fill="#000000" stroke="#000000" points="1815.2105,-317.5001 1825.2104,-314 1815.2104,-310.5001 1815.2105,-317.5001"/>
</g>
<!-- SearchComponent -->
<g id="node25" class="node">
<title>SearchComponent</title>
<polygon fill="#ffffb3" stroke="#000000" points="2587.9201,-274 2468.0799,-274 2468.0799,-238 2587.9201,-238 2587.9201,-274"/>
<text text-anchor="middle" x="2528" y="-251.8" font-family="Times,serif" font-size="14.00" fill="#000000">SearchComponent</text>
</g>
<!-- SearchComponent&#45;&gt;LayoutModule -->
<g id="edge25" class="edge">
<title>SearchComponent&#45;&gt;LayoutModule</title>
<path fill="none" stroke="#000000" d="M2528,-274.0908C2528,-297.1328 2528,-334 2528,-334 2528,-334 1934.6171,-334 1934.6171,-334"/>
<polygon fill="#000000" stroke="#000000" points="1934.6171,-330.5001 1924.6171,-334 1934.6171,-337.5001 1934.6171,-330.5001"/>
</g>
<!-- NavigationComponent -->
<g id="node26" class="node">
<title>NavigationComponent</title>
<polygon fill="#ffffb3" stroke="#000000" points="2450.5407,-274 2307.4593,-274 2307.4593,-238 2450.5407,-238 2450.5407,-274"/>
<text text-anchor="middle" x="2379" y="-251.8" font-family="Times,serif" font-size="14.00" fill="#000000">NavigationComponent</text>
</g>
<!-- NavigationComponent&#45;&gt;LayoutModule -->
<g id="edge26" class="edge">
<title>NavigationComponent&#45;&gt;LayoutModule</title>
<path fill="none" stroke="#000000" d="M2379,-274.0267C2379,-294.7672 2379,-326 2379,-326 2379,-326 1934.7048,-326 1934.7048,-326"/>
<polygon fill="#000000" stroke="#000000" points="1934.7048,-322.5001 1924.7048,-326 1934.7048,-329.5001 1934.7048,-322.5001"/>
</g>
<!-- NavigationTriggerComponent -->
<g id="node27" class="node">
<title>NavigationTriggerComponent</title>
<polygon fill="#ffffb3" stroke="#000000" points="2288.5196,-274 2103.4804,-274 2103.4804,-238 2288.5196,-238 2288.5196,-274"/>
<text text-anchor="middle" x="2196" y="-251.8" font-family="Times,serif" font-size="14.00" fill="#000000">NavigationTriggerComponent</text>
</g>
<!-- NavigationTriggerComponent&#45;&gt;LayoutModule -->
<g id="edge27" class="edge">
<title>NavigationTriggerComponent&#45;&gt;LayoutModule</title>
<path fill="none" stroke="#000000" d="M2196,-274.0348C2196,-293.5762 2196,-322 2196,-322 2196,-322 1934.804,-322 1934.804,-322"/>
<polygon fill="#000000" stroke="#000000" points="1934.8041,-318.5001 1924.804,-322 1934.804,-325.5001 1934.8041,-318.5001"/>
</g>
<!-- AddUserComponent -->
<g id="node28" class="node">
<title>AddUserComponent</title>
<polygon fill="#ffffb3" stroke="#000000" points="2084.8655,-274 1953.1345,-274 1953.1345,-238 2084.8655,-238 2084.8655,-274"/>
<text text-anchor="middle" x="2019" y="-251.8" font-family="Times,serif" font-size="14.00" fill="#000000">AddUserComponent</text>
</g>
<!-- AddUserComponent&#45;&gt;LayoutModule -->
<g id="edge28" class="edge">
<title>AddUserComponent&#45;&gt;LayoutModule</title>
<path fill="none" stroke="#000000" d="M2019,-274.2667C2019,-292.5552 2019,-318 2019,-318 2019,-318 1934.9601,-318 1934.9601,-318"/>
<polygon fill="#000000" stroke="#000000" points="1934.9601,-314.5001 1924.9601,-318 1934.96,-321.5001 1934.9601,-314.5001"/>
</g>
<!-- LayoutRouting -->
<g id="node30" class="node">
<title>LayoutRouting</title>
<polygon fill="#8dd3c7" stroke="#000000" points="1651.2758,-274 1648.2758,-278 1627.2758,-278 1624.2758,-274 1550.7242,-274 1550.7242,-238 1651.2758,-238 1651.2758,-274"/>
<text text-anchor="middle" x="1601" y="-251.8" font-family="Times,serif" font-size="14.00" fill="#000000">LayoutRouting</text>
</g>
<!-- LayoutRouting&#45;&gt;LayoutModule -->
<g id="edge30" class="edge">
<title>LayoutRouting&#45;&gt;LayoutModule</title>
<path fill="none" stroke="#000000" d="M1601,-274.2667C1601,-292.5552 1601,-318 1601,-318 1601,-318 1815.3807,-318 1815.3807,-318"/>
<polygon fill="#000000" stroke="#000000" points="1815.3807,-321.5001 1825.3807,-318 1815.3806,-314.5001 1815.3807,-321.5001"/>
</g>
<!-- ProfileModule -->
<g id="node31" class="node">
<title>ProfileModule</title>
<polygon fill="#8dd3c7" stroke="#000000" points="1532.65,-274 1529.65,-278 1508.65,-278 1505.65,-274 1435.35,-274 1435.35,-238 1532.65,-238 1532.65,-274"/>
<text text-anchor="middle" x="1484" y="-251.8" font-family="Times,serif" font-size="14.00" fill="#000000">ProfileModule</text>
</g>
<!-- ProfileModule&#45;&gt;LayoutModule -->
<g id="edge31" class="edge">
<title>ProfileModule&#45;&gt;LayoutModule</title>
<path fill="none" stroke="#000000" d="M1484,-274.0348C1484,-293.5762 1484,-322 1484,-322 1484,-322 1815.0824,-322 1815.0824,-322"/>
<polygon fill="#000000" stroke="#000000" points="1815.0825,-325.5001 1825.0824,-322 1815.0824,-318.5001 1815.0825,-325.5001"/>
</g>
<!-- LayoutResolveGuard -->
<g id="node32" class="node">
<title>LayoutResolveGuard</title>
<ellipse fill="#fdb462" stroke="#000000" cx="1317" cy="-256" rx="93.763" ry="18"/>
<text text-anchor="middle" x="1317" y="-251.8" font-family="Times,serif" font-size="14.00" fill="#000000">LayoutResolveGuard</text>
</g>
<!-- LayoutResolveGuard&#45;&gt;LayoutModule -->
<g id="edge34" class="edge">
<title>LayoutResolveGuard&#45;&gt;LayoutModule</title>
<path fill="none" stroke="#000000" d="M1317,-274.0267C1317,-294.7672 1317,-326 1317,-326 1317,-326 1814.9902,-326 1814.9902,-326"/>
<polygon fill="#000000" stroke="#000000" points="1814.9902,-329.5001 1824.9902,-326 1814.9901,-322.5001 1814.9902,-329.5001"/>
</g>
<!-- AuthGuard -->
<g id="node33" class="node">
<title>AuthGuard</title>
<ellipse fill="#fdb462" stroke="#000000" cx="1151" cy="-256" rx="54.4566" ry="18"/>
<text text-anchor="middle" x="1151" y="-251.8" font-family="Times,serif" font-size="14.00" fill="#000000">AuthGuard</text>
</g>
<!-- AuthGuard&#45;&gt;LayoutModule -->
<g id="edge35" class="edge">
<title>AuthGuard&#45;&gt;LayoutModule</title>
<path fill="none" stroke="#000000" d="M1151,-274.2921C1151,-296.2057 1151,-330 1151,-330 1151,-330 1815.2365,-330 1815.2365,-330"/>
<polygon fill="#000000" stroke="#000000" points="1815.2366,-333.5001 1825.2365,-330 1815.2365,-326.5001 1815.2366,-333.5001"/>
</g>
<!-- AuthService -->
<g id="node34" class="node">
<title>AuthService</title>
<ellipse fill="#fdb462" stroke="#000000" cx="1019" cy="-256" rx="59.1083" ry="18"/>
<text text-anchor="middle" x="1019" y="-251.8" font-family="Times,serif" font-size="14.00" fill="#000000">AuthService</text>
</g>
<!-- AuthService&#45;&gt;LayoutModule -->
<g id="edge36" class="edge">
<title>AuthService&#45;&gt;LayoutModule</title>
<path fill="none" stroke="#000000" d="M1019,-274.0908C1019,-297.1328 1019,-334 1019,-334 1019,-334 1815.2779,-334 1815.2779,-334"/>
<polygon fill="#000000" stroke="#000000" points="1815.2779,-337.5001 1825.2779,-334 1815.2778,-330.5001 1815.2779,-337.5001"/>
</g>
<!-- PostViewResolveGuard -->
<g id="node35" class="node">
<title>PostViewResolveGuard</title>
<ellipse fill="#fdb462" stroke="#000000" cx="838" cy="-256" rx="103.6508" ry="18"/>
<text text-anchor="middle" x="838" y="-251.8" font-family="Times,serif" font-size="14.00" fill="#000000">PostViewResolveGuard</text>
</g>
<!-- PostViewResolveGuard&#45;&gt;LayoutModule -->
<g id="edge37" class="edge">
<title>PostViewResolveGuard&#45;&gt;LayoutModule</title>
<path fill="none" stroke="#000000" d="M838,-274.1985C838,-298.3563 838,-338 838,-338 838,-338 1815.3327,-338 1815.3327,-338"/>
<polygon fill="#000000" stroke="#000000" points="1815.3327,-341.5001 1825.3327,-338 1815.3327,-334.5001 1815.3327,-341.5001"/>
</g>
<!-- LoginComponent -->
<g id="node36" class="node">
<title>LoginComponent</title>
<polygon fill="#ffffb3" stroke="#000000" points="4044.2758,-274 3929.7242,-274 3929.7242,-238 4044.2758,-238 4044.2758,-274"/>
<text text-anchor="middle" x="3987" y="-251.8" font-family="Times,serif" font-size="14.00" fill="#000000">LoginComponent</text>
</g>
<!-- LoginComponent&#45;&gt;PagesModule -->
<g id="edge38" class="edge">
<title>LoginComponent&#45;&gt;PagesModule</title>
<path fill="none" stroke="#000000" d="M3987,-274.2228C3987,-294.3652 3987,-324 3987,-324 3987,-324 3830.2178,-324 3830.2178,-324"/>
<polygon fill="#000000" stroke="#000000" points="3830.2179,-320.5001 3820.2178,-324 3830.2178,-327.5001 3830.2179,-320.5001"/>
</g>
<!-- SignupComponent -->
<g id="node37" class="node">
<title>SignupComponent</title>
<polygon fill="#ffffb3" stroke="#000000" points="3911.5056,-274 3790.4944,-274 3790.4944,-238 3911.5056,-238 3911.5056,-274"/>
<text text-anchor="middle" x="3851" y="-251.8" font-family="Times,serif" font-size="14.00" fill="#000000">SignupComponent</text>
</g>
<!-- SignupComponent&#45;&gt;PagesModule -->
<g id="edge39" class="edge">
<title>SignupComponent&#45;&gt;PagesModule</title>
<path fill="none" stroke="#000000" d="M3805.3002,-274.2228C3805.3002,-274.2228 3805.3002,-295.7269 3805.3002,-295.7269"/>
<polygon fill="#000000" stroke="#000000" points="3801.8002,-295.7269 3805.3002,-305.7269 3808.8002,-295.727 3801.8002,-295.7269"/>
</g>
<!-- PagesRoutingModule -->
<g id="node39" class="node">
<title>PagesRoutingModule</title>
<polygon fill="#8dd3c7" stroke="#000000" points="3765.8244,-274 3762.8244,-278 3741.8244,-278 3738.8244,-274 3628.1756,-274 3628.1756,-238 3765.8244,-238 3765.8244,-274"/>
<text text-anchor="middle" x="3697" y="-251.8" font-family="Times,serif" font-size="14.00" fill="#000000">PagesRoutingModule</text>
</g>
<!-- PagesRoutingModule&#45;&gt;PagesModule -->
<g id="edge41" class="edge">
<title>PagesRoutingModule&#45;&gt;PagesModule</title>
<path fill="none" stroke="#000000" d="M3753.0736,-274.2228C3753.0736,-274.2228 3753.0736,-295.7269 3753.0736,-295.7269"/>
<polygon fill="#000000" stroke="#000000" points="3749.5737,-295.7269 3753.0736,-305.7269 3756.5737,-295.727 3749.5737,-295.7269"/>
</g>
<!-- CreatePostComponent -->
<g id="node40" class="node">
<title>CreatePostComponent</title>
<polygon fill="#ffffb3" stroke="#000000" points="4522.9818,-122 4381.0182,-122 4381.0182,-86 4522.9818,-86 4522.9818,-122"/>
<text text-anchor="middle" x="4452" y="-99.8" font-family="Times,serif" font-size="14.00" fill="#000000">CreatePostComponent</text>
</g>
<!-- CreatePostComponent&#45;&gt;PostModule -->
<g id="edge42" class="edge">
<title>CreatePostComponent&#45;&gt;PostModule</title>
<path fill="none" stroke="#000000" d="M4396.3574,-122.1097C4396.3574,-131.897 4396.3574,-142 4396.3574,-142 4396.3574,-142 4134.3668,-142 4134.3668,-142 4134.3668,-142 4134.3668,-151.8903 4134.3668,-151.8903"/>
<polygon fill="#000000" stroke="#000000" points="4130.8669,-151.8903 4134.3668,-161.8903 4137.8669,-151.8904 4130.8669,-151.8903"/>
</g>
<!-- PostViewComponent -->
<g id="node41" class="node">
<title>PostViewComponent</title>
<polygon fill="#ffffb3" stroke="#000000" points="4362.7688,-122 4227.2312,-122 4227.2312,-86 4362.7688,-86 4362.7688,-122"/>
<text text-anchor="middle" x="4295" y="-99.8" font-family="Times,serif" font-size="14.00" fill="#000000">PostViewComponent</text>
</g>
<!-- PostViewComponent&#45;&gt;PostModule -->
<g id="edge43" class="edge">
<title>PostViewComponent&#45;&gt;PostModule</title>
<path fill="none" stroke="#000000" d="M4234.6683,-122.207C4234.6683,-127.5549 4234.6683,-132 4234.6683,-132 4234.6683,-132 4117.6332,-132 4117.6332,-132 4117.6332,-132 4117.6332,-151.8533 4117.6332,-151.8533"/>
<polygon fill="#000000" stroke="#000000" points="4114.1333,-151.8532 4117.6332,-161.8533 4121.1333,-151.8533 4114.1333,-151.8532"/>
</g>
<!-- CreateTopicComponent -->
<g id="node42" class="node">
<title>CreateTopicComponent</title>
<polygon fill="#ffffb3" stroke="#000000" points="4691.0226,-122 4540.9774,-122 4540.9774,-86 4691.0226,-86 4691.0226,-122"/>
<text text-anchor="middle" x="4616" y="-99.8" font-family="Times,serif" font-size="14.00" fill="#000000">CreateTopicComponent</text>
</g>
<!-- CreateTopicComponent&#45;&gt;PostModule -->
<g id="edge44" class="edge">
<title>CreateTopicComponent&#45;&gt;PostModule</title>
<path fill="none" stroke="#000000" d="M4563.4061,-122.1467C4563.4061,-135.7395 4563.4061,-152 4563.4061,-152 4563.4061,-152 4151.1003,-152 4151.1003,-152 4151.1003,-152 4151.1003,-152.9793 4151.1003,-152.9793"/>
<polygon fill="#000000" stroke="#000000" points="4147.6004,-151.793 4151.1003,-161.793 4154.6004,-151.7931 4147.6004,-151.793"/>
</g>
<!-- PostService -->
<g id="node46" class="node">
<title>PostService</title>
<ellipse fill="#fdb462" stroke="#000000" cx="3647" cy="-104" rx="56.7561" ry="18"/>
<text text-anchor="middle" x="3647" y="-99.8" font-family="Times,serif" font-size="14.00" fill="#000000">PostService</text>
</g>
<!-- PostService&#45;&gt;PostModule -->
<g id="edge48" class="edge">
<title>PostService&#45;&gt;PostModule</title>
<path fill="none" stroke="#000000" d="M3665.983,-121.2456C3665.983,-143.6688 3665.983,-180 3665.983,-180 3665.983,-180 4073.9571,-180 4073.9571,-180"/>
<polygon fill="#000000" stroke="#000000" points="4073.9571,-183.5001 4083.9571,-180 4073.957,-176.5001 4073.9571,-183.5001"/>
</g>
<!-- ProfileComponent -->
<g id="node47" class="node">
<title>ProfileComponent</title>
<polygon fill="#ffffb3" stroke="#000000" points="1543.9328,-198 1424.0672,-198 1424.0672,-162 1543.9328,-162 1543.9328,-198"/>
<text text-anchor="middle" x="1484" y="-175.8" font-family="Times,serif" font-size="14.00" fill="#000000">ProfileComponent</text>
</g>
<!-- ProfileComponent&#45;&gt;ProfileModule -->
<g id="edge49" class="edge">
<title>ProfileComponent&#45;&gt;ProfileModule</title>
<path fill="none" stroke="#000000" d="M1484,-198.0109C1484,-198.0109 1484,-227.855 1484,-227.855"/>
<polygon fill="#000000" stroke="#000000" points="1480.5001,-227.8549 1484,-237.855 1487.5001,-227.855 1480.5001,-227.8549"/>
</g>
<!-- TypeaheadComponent -->
<g id="node48" class="node">
<title>TypeaheadComponent</title>
<polygon fill="#ffffb3" stroke="#000000" points="5324.2436,-122 5181.7564,-122 5181.7564,-86 5324.2436,-86 5324.2436,-122"/>
<text text-anchor="middle" x="5253" y="-99.8" font-family="Times,serif" font-size="14.00" fill="#000000">TypeaheadComponent</text>
</g>
<!-- TypeaheadComponentModule -->
<g id="node49" class="node">
<title>TypeaheadComponentModule</title>
<polygon fill="#8dd3c7" stroke="#000000" points="5346.2934,-198 5343.2934,-202 5322.2934,-202 5319.2934,-198 5159.7066,-198 5159.7066,-162 5346.2934,-162 5346.2934,-198"/>
<text text-anchor="middle" x="5253" y="-175.8" font-family="Times,serif" font-size="14.00" fill="#000000">TypeaheadComponentModule</text>
</g>
<!-- TypeaheadComponent&#45;&gt;TypeaheadComponentModule -->
<g id="edge50" class="edge">
<title>TypeaheadComponent&#45;&gt;TypeaheadComponentModule</title>
<path fill="none" stroke="#000000" d="M5253,-122.0109C5253,-122.0109 5253,-151.855 5253,-151.855"/>
<polygon fill="#000000" stroke="#000000" points="5249.5001,-151.8549 5253,-161.855 5256.5001,-151.855 5249.5001,-151.8549"/>
</g>
</g>
</svg>
